<svg viewBox="0 0 18 18" fill="none" xmlns="http://www.w3.org/2000/svg" xmlns:xlink="http://www.w3.org/1999/xlink" x="0" y="0"><g id="Group 427319175">
<path id="Vector_144" d="M11.66,9.096h5.78" stroke="white" stroke-width="1.5" stroke-linecap="round" stroke-linejoin="round"/>
<path id="Vector_145" d="M0.56,9.096h6.05" stroke="white" stroke-width="1.5" stroke-linecap="round" stroke-linejoin="round"/>
<path id="Vector_146" d="M18,4.377v13.623h-18v-13.623c0,0 16.91,0.036 18,0z" stroke="white" stroke-width="1.5" stroke-linecap="round" stroke-linejoin="round"/>
<path id="Vector_147" d="M9.09,11.392l-2.41,1.571v-8.586h4.82v8.586z" stroke="white" stroke-width="1.5" stroke-linecap="round" stroke-linejoin="round"/>
<g id="Group_15">
<path id="Vector_148" d="M7.3,2.125l-2.82,-1.8c-1.61,-0.9 -3.26,0.073 -3.26,2.986v1.067c0.02,0.013 15.68,0 15.75,0v-1.067c0,-2.915 -1.65,-3.889 -3.26,-2.986l-2.82,1.8" stroke="white" stroke-width="1.5" stroke-linecap="round" stroke-linejoin="round"/>
<path id="Vector_149" d="M11.21,4.377v-1.729c0,-0.501 -0.41,-0.908 -0.92,-0.908h-2.42c-0.51,0 -0.92,0.407 -0.92,0.908v1.729c0,0 4.26,-0.06 4.26,0z" stroke="white" stroke-width="1.5" stroke-linecap="round" stroke-linejoin="round"/>
</g>
</g></svg>