<svg id="Layer_1" height="512" viewBox="0 0 64 64" width="512" xmlns="http://www.w3.org/2000/svg" data-name="Layer 1"><path d="m56 50h-2v-45a3 3 0 0 0 -3-3h-29.586l-11.414 11.414v36.586h-2v-37a1 1 0 0 1 .293-.707l12-12a1 1 0 0 1 .707-.293h30a5.006 5.006 0 0 1 5 5z"/><path d="m21 14h-12a1 1 0 0 1 -.707-1.707l12-12a1 1 0 0 1 1.707.707v12a1 1 0 0 1 -1 1zm-9.586-2h8.586v-8.586z"/><path d="m40 16a5.006 5.006 0 0 1 -5-5v-1a5 5 0 0 1 10 0v1a5.006 5.006 0 0 1 -5 5zm0-9a3 3 0 0 0 -3 3v1a3 3 0 0 0 6 0v-1a3 3 0 0 0 -3-3z"/><path d="m49 26h-2v-4a3 3 0 0 0 -3-3h-8a3 3 0 0 0 -3 3v4h-2v-4a5.006 5.006 0 0 1 5-5h8a5.006 5.006 0 0 1 5 5z"/><path d="m15 19h12v2h-12z"/><path d="m15 25h12v2h-12z"/><path d="m15 31h34v2h-34z"/><path d="m15 37h34v2h-34z"/><path d="m36.943 61a1 1 0 0 1 -.46-.112l-4.483-2.325-4.483 2.325a1 1 0 0 1 -1.446-1.059l.853-4.9-3.615-3.479a1 1 0 0 1 .55-1.711l5.009-.718 2.238-4.468a1.04 1.04 0 0 1 1.788 0l2.238 4.468 5.009.718a1 1 0 0 1 .55 1.711l-3.615 3.476.853 4.9a1 1 0 0 1 -.986 1.174zm-4.943-4.562a1 1 0 0 1 .46.112l3.152 1.634-.6-3.44a1 1 0 0 1 .293-.891l2.521-2.424-3.5-.5a1 1 0 0 1 -.752-.543l-1.574-3.152-1.578 3.151a1 1 0 0 1 -.752.543l-3.5.5 2.521 2.424a1 1 0 0 1 .293.891l-.6 3.44 3.156-1.633a1 1 0 0 1 .46-.112z"/><path d="m19.943 64a1 1 0 0 1 -.46-.112l-4.483-2.325-4.483 2.325a1 1 0 0 1 -1.446-1.059l.853-4.9-3.615-3.479a1 1 0 0 1 .55-1.711l5.009-.718 2.238-4.468a1.04 1.04 0 0 1 1.788 0l2.238 4.468 5.009.718a1 1 0 0 1 .55 1.711l-3.615 3.476.853 4.9a1 1 0 0 1 -.986 1.174zm-4.943-4.562a1 1 0 0 1 .46.112l3.152 1.634-.6-3.44a1 1 0 0 1 .293-.891l2.521-2.424-3.5-.5a1 1 0 0 1 -.752-.543l-1.574-3.152-1.578 3.151a1 1 0 0 1 -.752.543l-3.5.5 2.521 2.424a1 1 0 0 1 .293.891l-.6 3.44 3.156-1.633a1 1 0 0 1 .46-.112z"/><path d="m53.943 64a1 1 0 0 1 -.46-.112l-4.483-2.325-4.483 2.325a1 1 0 0 1 -1.446-1.059l.853-4.9-3.615-3.479a1 1 0 0 1 .55-1.711l5.009-.718 2.238-4.468a1.04 1.04 0 0 1 1.788 0l2.238 4.468 5.009.718a1 1 0 0 1 .55 1.711l-3.615 3.476.853 4.9a1 1 0 0 1 -.986 1.174zm-4.943-4.562a1 1 0 0 1 .46.112l3.152 1.634-.6-3.44a1 1 0 0 1 .293-.891l2.521-2.424-3.5-.5a1 1 0 0 1 -.752-.543l-1.574-3.152-1.578 3.151a1 1 0 0 1 -.752.543l-3.5.5 2.521 2.424a1 1 0 0 1 .293.891l-.6 3.44 3.156-1.633a1 1 0 0 1 .46-.112z"/></svg>