<svg viewBox="0 0 46 42" fill="none" xmlns="http://www.w3.org/2000/svg" xmlns:xlink="http://www.w3.org/1999/xlink" x="0" y="0"><path id="Vector_24" d="M42.276,8.11l-14.133,-6.7c-3.111,-1.85 -6.984,-1.88 -10.126,-0.09l-14.292,6.79c-0.054,0.03 -0.109,0.05 -0.161,0.09c-3.392,1.93 -4.569,6.23 -2.63,9.6c0.658,1.14 1.625,2.08 2.791,2.71l3.943,1.86v9.35c0.002,4.18 2.734,7.87 6.744,9.11c2.791,0.8 5.684,1.2 8.589,1.17c2.904,0.03 5.797,-0.36 8.588,-1.16c4.01,-1.24 6.742,-4.93 6.744,-9.11v-9.36l3.834,-1.82v15.73c0,1.05 0.858,1.9 1.916,1.9c1.059,0 1.917,-0.85 1.917,-1.9v-22.89c0.013,-2.24 -1.764,-4.31 -3.724,-5.28zM34.5,31.73c0.001,2.5 -1.629,4.71 -4.025,5.46c-2.43,0.69 -4.948,1.02 -7.475,0.99c-2.527,0.03 -5.045,-0.3 -7.474,-0.99c-2.397,-0.75 -4.026,-2.96 -4.025,-5.46v-7.54l6.357,3.02c1.569,0.92 3.36,1.41 5.185,1.4c1.736,0.02 3.443,-0.44 4.939,-1.32l6.518,-3.1zM40.633,17.06l-14.455,6.87c-2.015,1.17 -4.514,1.13 -6.497,-0.09l-14.143,-6.69c-1.576,-0.85 -2.165,-2.8 -1.315,-4.37c0.287,-0.53 0.718,-0.97 1.244,-1.27l14.365,-6.83c2.016,-1.16 4.513,-1.13 6.498,0.09l14.133,6.7c1.039,0.57 1.689,1.65 1.704,2.84c0.001,1.12 -0.578,2.16 -1.534,2.75z" fill="currentColor"/></svg>