<svg viewBox="0 0 42 40" fill="none" xmlns="http://www.w3.org/2000/svg" xmlns:xlink="http://www.w3.org/1999/xlink" x="0" y="0"><path id="Vector_23" d="M7.001,10.879c-0.69,0.002 -1.373,-0.139 -2.011,-0.413c-0.637,-0.275 -1.216,-0.678 -1.702,-1.187l-2.702,-2.501c-0.347,-0.321 -0.557,-0.773 -0.583,-1.255c-0.027,-0.482 0.132,-0.956 0.441,-1.317c0.309,-0.36 0.743,-0.578 1.207,-0.606c0.464,-0.028 0.919,0.137 1.266,0.459l2.773,2.574c0.159,0.185 0.353,0.335 0.569,0.439c0.217,0.105 0.452,0.163 0.69,0.17c0.239,0.006 0.476,-0.038 0.698,-0.13c0.222,-0.092 0.423,-0.231 0.591,-0.407l6.307,-6.244c0.339,-0.314 0.782,-0.479 1.236,-0.459c0.454,0.019 0.882,0.221 1.195,0.563c0.313,0.342 0.486,0.798 0.483,1.27c-0.004,0.472 -0.184,0.924 -0.502,1.261l-6.281,6.214c-0.483,0.5 -1.057,0.896 -1.687,1.165c-0.631,0.269 -1.306,0.406 -1.988,0.404zM42,7.239c0,-0.483 -0.184,-0.946 -0.513,-1.287c-0.328,-0.342 -0.773,-0.533 -1.237,-0.533h-17.499c-0.464,0 -0.91,0.191 -1.238,0.533c-0.328,0.341 -0.512,0.804 -0.512,1.287c0,0.482 0.184,0.945 0.512,1.287c0.328,0.341 0.774,0.533 1.238,0.533h17.499c0.464,0 0.909,-0.192 1.237,-0.533c0.329,-0.342 0.513,-0.805 0.513,-1.287zM10.676,23.871l6.281,-6.214c0.175,-0.163 0.317,-0.36 0.417,-0.58c0.101,-0.221 0.158,-0.46 0.167,-0.704c0.01,-0.244 -0.027,-0.488 -0.11,-0.716c-0.083,-0.229 -0.209,-0.438 -0.37,-0.614c-0.162,-0.177 -0.357,-0.318 -0.572,-0.415c-0.215,-0.098 -0.447,-0.149 -0.682,-0.151c-0.234,-0.002 -0.467,0.046 -0.684,0.139c-0.217,0.093 -0.413,0.231 -0.578,0.405l-6.3,6.245c-0.333,0.331 -0.776,0.516 -1.237,0.516c-0.461,0 -0.904,-0.185 -1.237,-0.516l-2.782,-2.885c-0.331,-0.331 -0.773,-0.515 -1.231,-0.511c-0.459,0.004 -0.898,0.196 -1.223,0.533c-0.324,0.338 -0.508,0.794 -0.512,1.272c-0.004,0.477 0.172,0.937 0.491,1.28l2.774,2.885c0.979,1.019 2.306,1.594 3.691,1.599c1.385,0.006 2.717,-0.558 3.704,-1.568zM42,21.799c0,-0.482 -0.184,-0.945 -0.513,-1.287c-0.328,-0.341 -0.773,-0.533 -1.237,-0.533h-17.499c-0.464,0 -0.91,0.192 -1.238,0.533c-0.328,0.342 -0.512,0.805 -0.512,1.287c0,0.483 0.184,0.946 0.512,1.287c0.328,0.342 0.774,0.533 1.238,0.533h17.499c0.464,0 0.909,-0.191 1.237,-0.533c0.329,-0.341 0.513,-0.804 0.513,-1.287zM10.676,38.431l6.274,-6.214c0.175,-0.162 0.317,-0.359 0.417,-0.58c0.101,-0.22 0.158,-0.46 0.167,-0.704c0.01,-0.244 -0.027,-0.487 -0.11,-0.715c-0.083,-0.229 -0.209,-0.438 -0.37,-0.615c-0.162,-0.177 -0.357,-0.318 -0.572,-0.415c-0.215,-0.097 -0.447,-0.148 -0.682,-0.15c-0.234,-0.002 -0.467,0.045 -0.684,0.139c-0.217,0.093 -0.413,0.231 -0.578,0.405l-6.3,6.245c-0.168,0.176 -0.369,0.314 -0.591,0.406c-0.222,0.093 -0.459,0.137 -0.698,0.13c-0.238,-0.007 -0.473,-0.064 -0.69,-0.169c-0.216,-0.105 -0.41,-0.255 -0.569,-0.44l-2.773,-2.574c-0.347,-0.321 -0.802,-0.486 -1.266,-0.459c-0.464,0.028 -0.898,0.246 -1.207,0.607c-0.309,0.36 -0.468,0.834 -0.441,1.316c0.026,0.482 0.236,0.934 0.583,1.255l2.702,2.501c0.979,1.019 2.306,1.594 3.691,1.6c1.385,0.006 2.717,-0.558 3.704,-1.569zM42,36.36c0,-0.483 -0.184,-0.946 -0.513,-1.287c-0.328,-0.341 -0.773,-0.533 -1.237,-0.533h-17.499c-0.464,0 -0.91,0.192 -1.238,0.533c-0.328,0.341 -0.512,0.804 -0.512,1.287c0,0.483 0.184,0.946 0.512,1.287c0.328,0.341 0.774,0.533 1.238,0.533h17.499c0.464,0 0.909,-0.192 1.237,-0.533c0.329,-0.341 0.513,-0.804 0.513,-1.287z" fill="currentColor"/></svg>