<svg width="20" height="20" viewBox="0 0 20 20" fill="none" xmlns="http://www.w3.org/2000/svg">
<g clip-path="url(#clip0_552_342)">
<path d="M18.092 9.80367C18.0674 13.1002 15.9398 16.1588 12.7414 17.2657C9.5149 18.383 5.90792 17.4002 3.72049 14.8313C1.56124 12.2933 1.31115 8.5554 3.03362 5.73471C4.7737 2.88643 8.27852 1.3485 11.6072 2.03126C15.3586 2.79677 18.0674 6.06229 18.092 9.80712C18.0991 10.6933 19.508 10.6968 19.501 9.80712C19.4728 5.90712 16.9648 2.40367 13.2275 1.05195C9.5149 -0.289432 5.14708 0.882981 2.6532 3.88988C0.127613 6.93126 -0.235198 11.3037 1.87826 14.6657C3.96002 17.9761 7.97911 19.6726 11.8644 18.9313C16.2744 18.0933 19.4693 14.1657 19.501 9.80367C19.508 8.91746 18.0991 8.91401 18.092 9.80367Z" fill="#0B579F"/>
<path d="M5.55004 2.20305C4.916 1.09961 3.47885 0.540985 2.25656 1.0203C1.6507 1.25823 1.11882 1.67892 0.81941 2.25823C0.523526 2.83064 0.438988 3.47547 0.58693 4.10305C0.752484 4.80995 1.25267 5.42719 1.89375 5.78236C2.21429 5.95823 2.67925 5.86857 2.8589 5.53409C3.03502 5.2065 2.95048 4.77892 2.60528 4.58926C2.55245 4.56167 2.50313 4.53064 2.45382 4.49961C2.3094 4.4065 2.50313 4.55133 2.41155 4.47202C2.31997 4.39271 2.23895 4.3065 2.15793 4.21685C2.09805 4.14788 2.23543 4.32719 2.18611 4.25133C2.17555 4.23409 2.16146 4.21685 2.14737 4.19616C2.11919 4.15478 2.09101 4.10995 2.06635 4.06512C2.04169 4.02374 2.02408 3.97202 1.9959 3.93064C2.0734 4.04788 2.03465 4.03064 2.01704 3.97547C2.00647 3.94788 1.9959 3.92374 1.98886 3.89616C1.95716 3.80305 1.94659 3.70305 1.91841 3.60995C1.9642 3.75823 1.92898 3.72374 1.92545 3.66857C1.92545 3.64098 1.92193 3.6134 1.91841 3.58581C1.91841 3.53064 1.91489 3.47547 1.91841 3.41685C1.91841 3.36857 1.92545 3.3203 1.92898 3.26857C1.9325 3.19271 1.91841 3.34788 1.91841 3.34788C1.92898 3.33409 1.9325 3.27547 1.9325 3.26512C1.95363 3.16167 1.98886 3.06167 2.02408 2.96167C2.04874 2.89271 1.9959 3.03064 1.9959 3.02719C2.00999 3.0065 2.02056 2.97202 2.03465 2.95133C2.05931 2.9065 2.08396 2.86167 2.10862 2.8203C2.11919 2.80305 2.19668 2.69271 2.19316 2.69271C2.19316 2.69271 2.10158 2.79961 2.15089 2.74443C2.17555 2.71685 2.2002 2.68581 2.22486 2.65823C2.29883 2.57892 2.38689 2.5203 2.45734 2.44443C2.44677 2.45823 2.32349 2.53409 2.42212 2.47202C2.43973 2.46167 2.45734 2.44788 2.47848 2.43754C2.52779 2.4065 2.58063 2.37892 2.62994 2.35133C2.6546 2.33754 2.68278 2.32719 2.70743 2.3134C2.77436 2.27892 2.63699 2.34099 2.64051 2.34099C2.68982 2.33064 2.73561 2.3065 2.78493 2.29271C2.83424 2.27892 2.88003 2.26512 2.92935 2.25478C2.95753 2.24788 2.98571 2.24443 3.01389 2.23754C3.10899 2.21685 2.98571 2.24443 2.954 2.24443C3.05263 2.24443 3.15478 2.22719 3.25341 2.23064C3.30977 2.23064 3.36965 2.24443 3.42601 2.24443C3.42953 2.24443 3.27102 2.21685 3.34499 2.23409C3.38022 2.24099 3.41544 2.24788 3.45067 2.25478C3.50703 2.26857 3.56339 2.28236 3.61622 2.29961C3.63736 2.3065 3.65849 2.3134 3.6761 2.3203C3.80643 2.36512 3.66201 2.33409 3.64792 2.3065C3.65849 2.33064 3.77473 2.36857 3.80291 2.38581C3.85575 2.4134 3.90506 2.44788 3.95438 2.47892C4.053 2.54099 3.93324 2.46167 3.91915 2.45133C3.94029 2.47202 3.96846 2.48926 3.9896 2.5065C4.04244 2.55133 4.09527 2.60305 4.14459 2.65478C4.1622 2.67202 4.17981 2.69271 4.19742 2.7134C4.15515 2.64443 4.28548 2.80995 4.19742 2.7134C4.23617 2.77892 4.28196 2.83754 4.31719 2.90305C4.49683 3.21685 4.96531 3.35133 5.28233 3.15133C5.6064 2.94443 5.72968 2.54443 5.53595 2.2065L5.55004 2.20305Z" fill="#0B579F"/>
<path d="M15.6518 2.89979C15.6799 2.84807 15.7116 2.79979 15.7433 2.75151C15.8385 2.61014 15.6905 2.79979 15.7715 2.71014C15.8525 2.62048 15.9406 2.54117 16.0322 2.46186C16.1026 2.40324 15.9195 2.53772 15.997 2.48945C16.0146 2.4791 16.0322 2.46531 16.0533 2.45151C16.0956 2.42393 16.1414 2.39634 16.1872 2.3722C16.2294 2.34807 16.2823 2.33083 16.3245 2.30324C16.2048 2.3791 16.2224 2.34117 16.2788 2.32393C16.3069 2.31358 16.3316 2.30324 16.3598 2.29634C16.4549 2.26531 16.557 2.25496 16.6521 2.22738C16.5007 2.2722 16.5359 2.23772 16.5923 2.23427C16.6204 2.23427 16.6486 2.23083 16.6768 2.22738C16.7332 2.22738 16.7895 2.22393 16.8494 2.22738C16.8987 2.22738 16.948 2.23427 17.0009 2.23772C17.0784 2.24117 16.9198 2.22738 16.9198 2.22738C16.9339 2.23772 16.9938 2.24117 17.0044 2.24117C17.1101 2.26186 17.2122 2.29634 17.3144 2.33083C17.3848 2.35496 17.2439 2.30324 17.2474 2.30324C17.2686 2.31703 17.3038 2.32738 17.3249 2.34117C17.3707 2.36531 17.4165 2.38945 17.4588 2.41358C17.4764 2.42393 17.5891 2.49979 17.5891 2.49634C17.5891 2.49634 17.4799 2.40669 17.5363 2.45496C17.5644 2.4791 17.5961 2.50324 17.6243 2.52738C17.7053 2.59979 17.7652 2.686 17.8427 2.75496C17.8286 2.74462 17.7511 2.62393 17.8145 2.72048C17.8251 2.73772 17.8392 2.75496 17.8498 2.77565C17.8815 2.82393 17.9096 2.87565 17.9378 2.92393C17.9519 2.94807 17.9625 2.97565 17.9766 2.99979C18.0118 3.06531 17.9484 2.93083 17.9484 2.93427C17.959 2.98255 17.9836 3.02738 17.9977 3.07565C18.0118 3.12393 18.0259 3.16876 18.0365 3.21703C18.0435 3.24462 18.047 3.2722 18.0541 3.29979C18.0752 3.39289 18.047 3.2722 18.047 3.24117C18.047 3.33772 18.0646 3.43772 18.0611 3.53427C18.0611 3.58945 18.047 3.64807 18.047 3.70324C18.047 3.70669 18.0752 3.55152 18.0576 3.62393C18.0505 3.65841 18.0435 3.69289 18.0365 3.72738C18.0224 3.78255 18.0083 3.83772 17.9907 3.88945C17.9836 3.91014 17.9766 3.93083 17.9695 3.94807C17.9237 4.07565 17.9554 3.93427 17.9836 3.92048C17.959 3.93083 17.9202 4.04462 17.9026 4.0722C17.8744 4.12393 17.8392 4.1722 17.8075 4.22048C17.7441 4.31703 17.8251 4.19979 17.8357 4.186C17.8145 4.20669 17.7969 4.23427 17.7793 4.25496C17.7335 4.30669 17.6807 4.35841 17.6279 4.40669C17.6102 4.42393 17.5891 4.44117 17.568 4.45841C17.4693 4.54462 17.6384 4.41703 17.568 4.45841C17.501 4.49634 17.4412 4.54117 17.3742 4.57565C17.0537 4.75151 16.9163 5.21014 17.1206 5.52048C17.3284 5.83772 17.7406 5.95841 18.0858 5.76876C19.2165 5.14807 19.7836 3.74117 19.294 2.54462C19.0509 1.95151 18.6212 1.43083 18.0294 1.13772C17.4412 0.848067 16.786 0.765308 16.1414 0.910136C15.4193 1.0722 14.7888 1.56186 14.426 2.18945C14.2463 2.50324 14.3379 2.95841 14.6796 3.13427C15.0142 3.30669 15.451 3.22393 15.6447 2.886L15.6518 2.89979Z" fill="#0B579F"/>
<path d="M4.61215 16.8938C4.3057 17.3524 3.99924 17.8076 3.68927 18.2662C3.64348 18.3318 3.60121 18.3973 3.55542 18.4628C3.45679 18.6076 3.43918 18.8318 3.48497 18.9938C3.53076 19.1524 3.65757 19.3283 3.80903 19.4076C4.16128 19.5904 4.55579 19.4835 4.77418 19.1593C5.08063 18.7007 5.38708 18.2455 5.69706 17.7869C5.74285 17.7214 5.78512 17.6559 5.83091 17.5904C5.92954 17.4455 5.94715 17.2214 5.90136 17.0593C5.85557 16.9007 5.72876 16.7249 5.57729 16.6455C5.22505 16.4628 4.83054 16.5697 4.61215 16.8938Z" fill="#0B579F"/>
<path d="M14.1484 17.5898C14.4549 18.0484 14.7613 18.5035 15.0713 18.9622C15.1171 19.0277 15.1594 19.0932 15.2052 19.1587C15.3073 19.307 15.4447 19.4277 15.6279 19.476C15.7969 19.5208 16.0224 19.5001 16.1703 19.407C16.3218 19.3104 16.4521 19.1691 16.4944 18.9932C16.5367 18.8173 16.5261 18.6173 16.4239 18.4622C16.1175 18.0035 15.811 17.5484 15.5011 17.0898C15.4553 17.0242 15.413 16.9587 15.3672 16.8932C15.2651 16.7449 15.1277 16.6242 14.9445 16.576C14.7754 16.5311 14.55 16.5518 14.4021 16.6449C14.2506 16.7415 14.1203 16.8829 14.078 17.0587C14.0357 17.2346 14.0463 17.4346 14.1484 17.5898Z" fill="#0B579F"/>
<path d="M9 5.18597V10.5963C9 10.9687 9.32406 11.286 9.70449 11.286H13.713C14.6183 11.286 14.6218 9.90666 13.713 9.90666H9.70449C9.94049 10.1377 10.173 10.3653 10.409 10.5963V5.18597C10.409 4.29976 9 4.29631 9 5.18597Z" fill="#0B579F"/>
</g>
<defs>
<clipPath id="clip0_552_342">
<rect width="19" height="19" fill="white" transform="translate(0.5 0.5)"/>
</clipPath>
</defs>
</svg>
