<svg viewBox="0 0 40 40" fill="none" xmlns="http://www.w3.org/2000/svg" xmlns:xlink="http://www.w3.org/1999/xlink" x="0" y="0"><g id="Group 427319236">
<path id="Vector_21" d="M31.096,1.549l-20.32,20.32c-0.776,0.772 -1.391,1.691 -1.81,2.702c-0.419,1.011 -0.633,2.096 -0.63,3.19v2.238c0,0.442 0.176,0.866 0.488,1.179c0.313,0.313 0.737,0.488 1.179,0.488h2.238c1.095,0.003 2.179,-0.211 3.19,-0.63c1.012,-0.419 1.93,-1.034 2.702,-1.81l20.32,-20.32c0.974,-0.976 1.521,-2.299 1.521,-3.678c0,-1.379 -0.547,-2.702 -1.521,-3.679c-0.991,-0.946 -2.308,-1.475 -3.679,-1.475c-1.37,0 -2.688,0.529 -3.678,1.475zM36.096,6.549l-20.32,20.32c-0.94,0.934 -2.21,1.46 -3.535,1.464h-0.572v-0.572c0.004,-1.325 0.53,-2.595 1.464,-3.535l20.32,-20.32c0.356,-0.34 0.829,-0.53 1.321,-0.53c0.493,0 0.966,0.19 1.322,0.53c0.35,0.351 0.546,0.826 0.546,1.322c0,0.495 -0.196,0.971 -0.546,1.321z" fill="currentColor"/>
<path id="Vector_22" d="M38.333,14.965c-0.442,0 -0.866,0.176 -1.178,0.488c-0.313,0.313 -0.488,0.737 -0.488,1.179v8.368h-6.667c-1.326,0 -2.598,0.527 -3.536,1.464c-0.937,0.938 -1.464,2.21 -1.464,3.536v6.667h-16.667c-1.326,0 -2.598,-0.527 -3.535,-1.465c-0.938,-0.938 -1.465,-2.209 -1.465,-3.535v-23.334c0,-1.326 0.527,-2.598 1.465,-3.535c0.937,-0.938 2.209,-1.465 3.535,-1.465h15.07c0.442,0 0.866,-0.175 1.179,-0.488c0.312,-0.312 0.488,-0.736 0.488,-1.178c0,-0.442 -0.176,-0.866 -0.488,-1.179c-0.313,-0.312 -0.737,-0.488 -1.179,-0.488h-15.07c-2.209,0.003 -4.327,0.881 -5.889,2.444c-1.563,1.562 -2.441,3.68 -2.444,5.889v23.334c0.003,2.209 0.881,4.327 2.444,5.889c1.562,1.562 3.68,2.441 5.889,2.444h18.905c1.095,0.003 2.18,-0.211 3.191,-0.63c1.012,-0.419 1.93,-1.034 2.703,-1.81l4.426,-4.43c0.777,-0.772 1.392,-1.69 1.811,-2.701c0.419,-1.012 0.634,-2.096 0.631,-3.191v-10.606c0,-0.442 -0.176,-0.866 -0.488,-1.179c-0.313,-0.312 -0.737,-0.488 -1.179,-0.488zM30.775,35.203c-0.67,0.669 -1.517,1.131 -2.442,1.334v-6.537c0,-0.442 0.176,-0.866 0.488,-1.179c0.313,-0.312 0.737,-0.488 1.179,-0.488h6.542c-0.207,0.923 -0.669,1.769 -1.334,2.44z" fill="currentColor"/>
</g></svg>