<svg width="20" height="20" viewBox="0 0 20 20" fill="none" xmlns="http://www.w3.org/2000/svg">
<path d="M8.80122 2.64746H2.53916C2.06465 2.64746 1.60957 2.83596 1.27403 3.1715C0.9385 3.50703 0.75 3.96211 0.75 4.43663V16.9608C0.75 17.4353 0.9385 17.8904 1.27403 18.2259C1.60957 18.5615 2.06465 18.75 2.53916 18.75H15.0633C15.5378 18.75 15.9929 18.5615 16.3284 18.2259C16.6639 17.8904 16.8524 17.4353 16.8524 16.9608V10.6987" stroke="white" stroke-width="1.5" stroke-linecap="round" stroke-linejoin="round"/>
<path d="M15.5103 1.30582C15.8662 0.949935 16.3488 0.75 16.8521 0.75C17.3554 0.75 17.8381 0.949935 18.194 1.30582C18.5499 1.66171 18.7498 2.1444 18.7498 2.6477C18.7498 3.151 18.5499 3.63368 18.194 3.98957L9.69551 12.4881L6.11719 13.3827L7.01177 9.80436L15.5103 1.30582Z" stroke="white" stroke-width="1.5" stroke-linecap="round" stroke-linejoin="round"/>
</svg>
