<svg id="Layer_1" viewBox="0 0 512 512" xmlns="http://www.w3.org/2000/svg" data-name="Layer 1" fill="currentColor" stroke="currentColor" stroke-width="8" stroke-linejoin="round" paint-order="stroke"><g fill="currentColor"><path d="m406.89 78.9h-114.31v-12.46a36.31 36.31 0 0 0 -36.26-36.26h-.64a36.31 36.31 0 0 0 -36.26 36.26v12.46h-114.31a24.68 24.68 0 0 0 -24.65 24.65v353.63a24.67 24.67 0 0 0 24.65 24.64h301.78a24.67 24.67 0 0 0 24.65-24.64v-353.63a24.68 24.68 0 0 0 -24.65-24.65zm-182.47 10a5 5 0 0 0 5-5v-17.46a26.29 26.29 0 0 1 26.26-26.26h.64a26.29 26.29 0 0 1 26.26 26.26v17.46a5 5 0 0 0 5 5h27v42.34h-117.19v-42.34zm197.12 368.28a14.66 14.66 0 0 1 -14.65 14.64h-301.78a14.66 14.66 0 0 1 -14.65-14.64v-353.63a14.66 14.66 0 0 1 14.65-14.65h82.28v47.34a5 5 0 0 0 5 5h127.22a5 5 0 0 0 5-5v-47.34h82.28a14.66 14.66 0 0 1 14.65 14.65z"/><circle cx="256" cy="66.98" r="9.7" transform="matrix(.383 -.924 .924 .383 96.15 277.86)"/><path d="m302 196.2h-157a5 5 0 0 0 0 10h157a5 5 0 0 0 0-10z"/><path d="m386.66 171.65a5 5 0 0 0 -6.86 1.72l-26.8 44.83-8.1-8.68a5 5 0 0 0 -7.31 6.82l12.64 13.54a5 5 0 0 0 3.65 1.59 4.71 4.71 0 0 0 .53 0 5 5 0 0 0 3.76-2.41l30.23-50.53a5 5 0 0 0 -1.74-6.88z"/><path d="m302 262.52h-157a5 5 0 0 0 0 10h157a5 5 0 0 0 0-10z"/><path d="m386.66 238a5 5 0 0 0 -6.86 1.72l-26.8 44.8-8.1-8.68a5 5 0 0 0 -7.31 6.82l12.64 13.54a5 5 0 0 0 3.65 1.59 4.71 4.71 0 0 0 .53 0 5 5 0 0 0 3.76-2.41l30.23-50.53a5 5 0 0 0 -1.74-6.85z"/><path d="m302 328.84h-157a5 5 0 0 0 0 10h157a5 5 0 0 0 0-10z"/><path d="m386.66 304.29a5 5 0 0 0 -6.86 1.71l-26.8 44.84-8.1-8.68a5 5 0 0 0 -7.31 6.82l12.64 13.54a5 5 0 0 0 3.65 1.59 4.71 4.71 0 0 0 .53 0 5 5 0 0 0 3.76-2.41l30.23-50.52a5 5 0 0 0 -1.74-6.89z"/><path d="m302 395.16h-157a5 5 0 0 0 0 10h157a5 5 0 0 0 0-10z"/><path d="m386.66 370.61a5 5 0 0 0 -6.86 1.72l-26.8 44.83-8.1-8.68a5 5 0 0 0 -7.31 6.83l12.64 13.53a5 5 0 0 0 3.65 1.59 4.71 4.71 0 0 0 .53 0 5 5 0 0 0 3.76-2.4l30.23-50.53a5 5 0 0 0 -1.74-6.89z"/></g></svg>