<svg viewBox="0 0 170.0004 69.9997" fill="none" xmlns="http://www.w3.org/2000/svg" xmlns:xlink="http://www.w3.org/1999/xlink" x="0" y="0"><g id="Group 427319161_2">
<g id="Group_13">
<path id="Vector_122" d="M0,55.68h1.444l2.852,10.1l4.018,-10.1h0.296l3.963,10.1l2.907,-10.1h1.426l-4.019,14.02h-0.259l-4.147,-10.62l-4.241,10.62h-0.259l-3.962,-14.02z" fill="#0B579F"/>
<path id="Vector_123" d="M19.718,55.05c0.297,0 0.556,0.11 0.778,0.32c0.222,0.22 0.315,0.48 0.315,0.78c0,0.29 -0.111,0.55 -0.315,0.78c-0.222,0.22 -0.481,0.31 -0.778,0.31c-0.296,0 -0.555,-0.11 -0.759,-0.31c-0.222,-0.23 -0.314,-0.49 -0.314,-0.78c0,-0.3 0.111,-0.56 0.314,-0.78c0.223,-0.23 0.463,-0.32 0.759,-0.32zM19.07,59.32h1.334v10.38h-1.334z" fill="#0B579F"/>
<path id="Vector_124" d="M24.33,55.47h1.333v3.87h2.111v1.15h-2.111v9.23h-1.333v-9.23h-1.814v-1.15h1.814z" fill="#0B579F"/>
<path id="Vector_125" d="M29.758,55.31h1.333v5.87c0.537,-0.71 1.13,-1.25 1.778,-1.6c0.648,-0.35 1.351,-0.52 2.092,-0.52c0.741,0 1.463,0.21 2.055,0.6c0.593,0.39 1.037,0.92 1.333,1.59c0.278,0.67 0.426,1.71 0.426,3.12v5.35h-1.333v-4.96c0,-1.19 -0.055,-1.98 -0.148,-2.39c-0.167,-0.69 -0.463,-1.21 -0.889,-1.54c-0.426,-0.36 -1,-0.52 -1.703,-0.52c-0.796,0 -1.519,0.26 -2.167,0.79c-0.629,0.54 -1.055,1.19 -1.259,1.99c-0.129,0.5 -0.185,1.45 -0.185,2.82v3.81h-1.333v-14.37z" fill="#0B579F"/>
<path id="Vector_126" d="M41.477,59.32h1.333v4.84c0,1.19 0.055,2.01 0.185,2.44c0.185,0.63 0.555,1.13 1.092,1.5c0.537,0.37 1.167,0.56 1.926,0.56c0.759,0 1.37,-0.19 1.889,-0.54c0.518,-0.35 0.87,-0.84 1.074,-1.41c0.129,-0.41 0.203,-1.25 0.203,-2.55v-4.84h1.371v5.09c0,1.43 -0.167,2.5 -0.5,3.23c-0.334,0.72 -0.834,1.28 -1.5,1.71c-0.667,0.41 -1.5,0.61 -2.518,0.61c-1.019,0 -1.852,-0.2 -2.519,-0.61c-0.666,-0.41 -1.185,-0.99 -1.518,-1.71c-0.333,-0.73 -0.5,-1.84 -0.5,-3.31v-4.99z" fill="#0B579F"/>
<path id="Vector_127" d="M58.678,60.45l-0.852,0.89c-0.722,-0.68 -1.407,-1.04 -2.092,-1.04c-0.426,0 -0.797,0.15 -1.111,0.43c-0.315,0.28 -0.463,0.61 -0.463,1c0,0.34 0.129,0.65 0.389,0.97c0.259,0.31 0.796,0.67 1.61,1.09c0.982,0.52 1.667,1.01 2.019,1.49c0.352,0.48 0.518,1.02 0.518,1.63c0,0.86 -0.296,1.58 -0.889,2.18c-0.592,0.59 -1.351,0.89 -2.24,0.89c-0.593,0 -1.167,-0.13 -1.704,-0.39c-0.537,-0.26 -0.999,-0.61 -1.351,-1.08l0.833,-0.95c0.685,0.77 1.407,1.16 2.166,1.16c0.537,0 0.982,-0.17 1.371,-0.52c0.37,-0.34 0.555,-0.75 0.555,-1.21c0,-0.39 -0.13,-0.73 -0.37,-1.02c-0.241,-0.3 -0.796,-0.67 -1.685,-1.12c-0.926,-0.48 -1.574,-0.96 -1.907,-1.43c-0.334,-0.46 -0.5,-1 -0.5,-1.61c0,-0.78 0.277,-1.45 0.796,-1.97c0.537,-0.52 1.222,-0.78 2.037,-0.78c0.944,0 1.907,0.46 2.87,1.39z" fill="#0B579F"/>
<path id="Vector_128" d="M66.621,55.68h1.389v5.89h7.129v-5.89h1.388v14.02h-1.388v-6.78h-7.129v6.78h-1.389z" fill="#0B579F"/>
<path id="Vector_129" d="M88.453,66.26l1.129,0.6c-0.37,0.72 -0.796,1.32 -1.277,1.76c-0.482,0.45 -1.019,0.78 -1.63,1.02c-0.592,0.23 -1.278,0.36 -2.037,0.36c-1.685,0 -2.999,-0.56 -3.962,-1.67c-0.945,-1.12 -1.426,-2.36 -1.426,-3.77c0,-1.32 0.407,-2.49 1.204,-3.53c1.018,-1.32 2.388,-1.97 4.092,-1.97c1.703,0 3.166,0.67 4.221,2c0.741,0.95 1.13,2.14 1.149,3.55h-9.314c0.018,1.21 0.407,2.19 1.148,2.97c0.74,0.76 1.666,1.15 2.759,1.15c0.518,0 1.037,-0.09 1.537,-0.27c0.5,-0.19 0.925,-0.43 1.277,-0.73c0.352,-0.3 0.722,-0.8 1.13,-1.47zM88.453,63.46c-0.185,-0.71 -0.445,-1.28 -0.778,-1.71c-0.333,-0.43 -0.796,-0.76 -1.352,-1.02c-0.555,-0.26 -1.148,-0.39 -1.759,-0.39c-1.018,0 -1.888,0.33 -2.611,0.98c-0.537,0.49 -0.944,1.19 -1.203,2.16h7.721z" fill="#0B579F"/>
<path id="Vector_130" d="M102.691,59.32v10.38h-1.315v-1.78c-0.555,0.69 -1.185,1.19 -1.87,1.54c-0.704,0.34 -1.444,0.52 -2.278,0.52c-1.463,0 -2.722,-0.54 -3.759,-1.6c-1.036,-1.05 -1.555,-2.35 -1.555,-3.88c0,-1.52 0.519,-2.77 1.574,-3.82c1.037,-1.06 2.296,-1.6 3.777,-1.6c0.852,0 1.611,0.18 2.315,0.54c0.685,0.37 1.296,0.91 1.815,1.63v-1.91h1.314zM97.376,60.34c-0.74,0 -1.425,0.19 -2.055,0.54c-0.629,0.37 -1.129,0.87 -1.5,1.54c-0.37,0.65 -0.555,1.36 -0.555,2.1c0,0.74 0.185,1.43 0.555,2.1c0.371,0.67 0.871,1.19 1.5,1.56c0.63,0.37 1.315,0.56 2.037,0.56c0.722,0 1.426,-0.19 2.074,-0.56c0.648,-0.37 1.148,-0.87 1.5,-1.5c0.351,-0.64 0.537,-1.34 0.537,-2.12c0,-1.21 -0.389,-2.21 -1.185,-3.01c-0.797,-0.8 -1.76,-1.21 -2.908,-1.21z" fill="#0B579F"/>
<path id="Vector_131" d="M105.488,55.31h1.333v14.37h-1.333z" fill="#0B579F"/>
<path id="Vector_132" d="M110.748,55.47h1.333v3.87h2.111v1.15h-2.111v9.23h-1.333v-9.23h-1.814v-1.15h1.814z" fill="#0B579F"/>
<path id="Vector_133" d="M116.191,55.31h1.334v5.87c0.537,-0.71 1.129,-1.25 1.777,-1.6c0.648,-0.35 1.352,-0.52 2.093,-0.52c0.74,0 1.462,0.21 2.055,0.6c0.592,0.39 1.037,0.92 1.333,1.59c0.278,0.67 0.426,1.71 0.426,3.12v5.35h-1.333v-4.96c0,-1.19 -0.056,-1.98 -0.148,-2.39c-0.167,-0.69 -0.463,-1.21 -0.889,-1.54c-0.426,-0.36 -1,-0.52 -1.704,-0.52c-0.796,0 -1.518,0.26 -2.166,0.79c-0.63,0.54 -1.056,1.19 -1.259,1.99c-0.13,0.5 -0.185,1.45 -0.185,2.82v3.81h-1.334v-14.37z" fill="#0B579F"/>
<path id="Vector_134" d="M138.113,61.47l-1.055,0.65c-0.908,-1.2 -2.167,-1.82 -3.741,-1.82c-1.259,0 -2.314,0.41 -3.129,1.23c-0.833,0.82 -1.259,1.8 -1.259,2.97c0,0.76 0.185,1.47 0.574,2.14c0.389,0.67 0.907,1.19 1.574,1.56c0.666,0.37 1.426,0.56 2.24,0.56c1.519,0 2.759,-0.62 3.722,-1.82l1.055,0.7c-0.499,0.74 -1.166,1.32 -1.999,1.75c-0.834,0.41 -1.778,0.61 -2.852,0.61c-1.629,0 -2.981,-0.52 -4.073,-1.56c-1.074,-1.04 -1.611,-2.32 -1.611,-3.81c0,-1 0.259,-1.93 0.759,-2.8c0.5,-0.86 1.203,-1.54 2.074,-2.03c0.888,-0.48 1.87,-0.72 2.962,-0.72c0.685,0 1.352,0.11 1.982,0.31c0.629,0.21 1.185,0.49 1.61,0.82c0.445,0.34 0.815,0.76 1.13,1.28z" fill="#0B579F"/>
<path id="Vector_135" d="M150.984,59.32v10.38h-1.315v-1.78c-0.556,0.69 -1.185,1.19 -1.87,1.54c-0.685,0.34 -1.444,0.52 -2.278,0.52c-1.463,0 -2.722,-0.54 -3.759,-1.6c-1.037,-1.05 -1.555,-2.35 -1.555,-3.88c0,-1.52 0.518,-2.77 1.574,-3.82c1.037,-1.06 2.314,-1.6 3.777,-1.6c0.852,0 1.611,0.18 2.315,0.54c0.685,0.37 1.296,0.91 1.814,1.63v-1.91h1.315zM145.651,60.34c-0.741,0 -1.426,0.19 -2.055,0.54c-0.63,0.37 -1.13,0.87 -1.5,1.54c-0.371,0.65 -0.556,1.36 -0.556,2.1c0,0.74 0.185,1.43 0.556,2.1c0.37,0.67 0.87,1.19 1.5,1.56c0.629,0.37 1.296,0.56 2.018,0.56c0.722,0 1.426,-0.19 2.074,-0.56c0.648,-0.37 1.148,-0.87 1.5,-1.5c0.351,-0.64 0.518,-1.34 0.518,-2.12c0,-1.21 -0.389,-2.21 -1.185,-3.01c-0.796,-0.8 -1.759,-1.21 -2.907,-1.21z" fill="#0B579F"/>
<path id="Vector_136" d="M153.465,59.32h1.37v1.52c0.407,-0.59 0.833,-1.04 1.278,-1.34c0.444,-0.29 0.926,-0.44 1.407,-0.44c0.37,0 0.759,0.11 1.185,0.35l-0.685,1.13c-0.278,-0.13 -0.519,-0.18 -0.704,-0.18c-0.444,0 -0.87,0.18 -1.277,0.56c-0.408,0.37 -0.722,0.92 -0.945,1.7c-0.166,0.6 -0.24,1.79 -0.24,3.59v3.51h-1.371v-10.38z" fill="#0B579F"/>
<path id="Vector_137" d="M168.538,66.26l1.129,0.6c-0.37,0.72 -0.796,1.32 -1.278,1.76c-0.481,0.45 -1.018,0.78 -1.629,1.02c-0.611,0.23 -1.278,0.36 -2.055,0.36c-1.685,0 -3,-0.56 -3.963,-1.67c-0.944,-1.12 -1.426,-2.36 -1.426,-3.77c0,-1.32 0.408,-2.49 1.204,-3.53c1.018,-1.32 2.389,-1.97 4.111,-1.97c1.722,0 3.166,0.67 4.221,2c0.741,0.95 1.13,2.14 1.148,3.55h-9.313c0.018,1.21 0.407,2.19 1.148,2.97c0.74,0.76 1.666,1.15 2.759,1.15c0.518,0 1.037,-0.09 1.536,-0.27c0.5,-0.19 0.926,-0.43 1.278,-0.73c0.352,-0.3 0.722,-0.8 1.13,-1.47zM168.538,63.46c-0.167,-0.71 -0.445,-1.28 -0.778,-1.71c-0.333,-0.43 -0.796,-0.76 -1.352,-1.02c-0.555,-0.26 -1.148,-0.39 -1.759,-0.39c-1.018,0 -1.889,0.33 -2.611,0.98c-0.537,0.49 -0.944,1.19 -1.203,2.16h7.703z" fill="#0B579F"/>
</g>
<g id="Group_14">
<g id="Group 427319161_3">
<path id="Exclude_2" d="M84.989,0c28.83,0 52.236,10.94 52.236,24.44c0,13.5 -23.387,24.44 -52.236,24.44c-28.848,0 -52.235,-10.94 -52.235,-24.44c0,-13.5 23.405,-24.44 52.235,-24.44zM84.989,2.45c-25.96,0 -47.013,9.85 -47.013,22.01c0,12.17 21.054,22.01 47.013,22.01c25.96,0 47.012,-9.84 47.013,-22.01c0,-12.16 -21.034,-22.01 -47.013,-22.01zM85.008,3.92c1.833,0 3.629,0.06 5.406,0.17c-14.193,-0.56 -11.718,3.31 -11.702,3.34c1.807,1.76 6.571,0.23 6.61,0.22c12.443,-3.54 24.034,-0.41 30.7,2.29c7.944,3.71 12.87,8.86 12.87,14.54c0,0.85 -0.13,1.69 -0.333,2.51c1.163,-6.64 -7.109,-5.47 -7.148,-5.46v-0.02c-3.742,0.85 -0.509,3.08 -0.481,3.1c0.104,0.08 0.205,0.16 0.303,0.24c-1.067,0.65 -3.547,2.71 -7.451,6.19c-0.925,0.83 -1.666,1.43 -2.221,1.82c-0.537,0.39 -1,0.57 -1.389,0.57c-0.241,0 -0.353,-0.07 -0.353,-0.24c0,-0.28 0.371,-1.06 1.112,-2.32l4.499,-7.62l-4.574,0.26c-4.499,6.58 -7.388,9.85 -8.684,9.85c-0.296,0 -0.426,-0.13 -0.426,-0.39c0,-0.24 0.519,-1.23 1.593,-2.94l4.184,-6.76l-4.073,0.24l-1.888,1.82l-1.167,1.08c-0.445,0.41 -0.797,0.71 -1.019,0.89c-0.247,0.2 -0.435,0.37 -0.563,0.5c-0.282,0.24 -0.6,0.52 -0.955,0.82c-1.777,1.52 -3.259,2.28 -4.425,2.28l-0.76,-0.11c1.166,-1.22 2.037,-2.3 2.611,-3.25c0.574,-0.94 0.852,-1.82 0.852,-2.65c0,-1.04 -0.519,-1.56 -1.445,-1.56c-0.925,0 -1.87,0.61 -2.795,1.84c-0.926,1.22 -1.389,2.5 -1.389,3.82c0,0.67 0.315,1.36 0.981,2.1c-0.833,1 -1.685,1.73 -2.555,2.21c-0.87,0.48 -1.685,0.72 -2.444,0.72c-0.648,0 -0.981,-0.26 -0.981,-0.76c0,-0.5 1.907,-3.8 5.721,-9.93l-4.758,0.24c-4.444,6.76 -7.574,10.16 -9.408,10.16c-0.332,0 -0.499,-0.13 -0.5,-0.39c0,-0.3 0.26,-0.86 0.76,-1.67c0.278,-0.45 1.019,-1.55 2.24,-3.31c2.13,-3.12 3.278,-4.79 3.463,-5.03l-4.518,0.24c-0.352,0.41 -0.685,0.76 -0.982,1.04c-0.296,0.28 -0.647,0.59 -1.054,0.89l-1.019,0.93c-0.352,0.33 -0.685,0.63 -1.018,0.89c-0.5,0.41 -0.759,0.67 -0.759,0.82c0,0.18 0.074,0.27 0.259,0.28c0.185,0 0.629,-0.36 1.333,-1.04c0.518,-0.51 1.055,-1.01 1.592,-1.51c-0.944,1.41 -1.573,2.38 -1.87,2.88c-0.889,1.45 -1.333,2.6 -1.333,3.45c0,0.71 0.222,1.29 0.648,1.71c0.444,0.43 1,0.65 1.722,0.65c1.093,0 2.278,-0.52 3.536,-1.56c1.26,-1.02 2.704,-2.6 4.296,-4.71c-0.333,0.66 -0.573,1.26 -0.758,1.78c-0.167,0.52 -0.26,0.98 -0.26,1.39c0,0.95 0.296,1.71 0.907,2.27c0.611,0.55 1.408,0.83 2.37,0.83c2.055,0 4.037,-1.06 5.944,-3.17c0.352,0.11 0.778,0.16 1.259,0.16c1.463,0 3.093,-0.79 4.87,-2.41c0.336,-0.31 0.657,-0.6 0.964,-0.87c0.228,-0.15 0.579,-0.46 1.055,-0.93c0.003,0 0.006,-0.01 0.009,-0.01c0.471,-0.41 0.9,-0.78 1.288,-1.1c-0.925,1.43 -1.616,2.54 -2.057,3.38c-0.555,1.07 -0.833,1.93 -0.833,2.58c0,0.7 0.204,1.24 0.63,1.67c0.407,0.43 0.963,0.63 1.685,0.63c1.592,0 4.092,-2.23 7.499,-6.67c-0.556,1.06 -1,1.93 -1.296,2.62c-0.315,0.69 -0.463,1.26 -0.463,1.75c0,0.72 0.222,1.28 0.684,1.69c0.463,0.41 1.057,0.61 1.797,0.61c0.926,0 1.908,-0.35 2.889,-1.04c0.593,-0.41 1.667,-1.34 3.24,-2.79c1.018,-0.94 2.037,-1.91 3.055,-2.89c1.301,-1.25 2.373,-2.14 3.203,-2.66c6.581,5.64 0.078,10.84 -5.499,13.87c-7.943,3.72 -18.924,6.02 -31.052,6.02c-1.833,0 -3.648,-0.05 -5.407,-0.17c14.239,0.56 11.702,-3.34 11.702,-3.34c-1.815,-1.76 -6.61,-0.22 -6.61,-0.22c-12.462,3.55 -24.053,0.39 -30.719,-2.29c-7.943,-3.71 -12.85,-8.85 -12.851,-14.52c0,-0.85 0.131,-1.69 0.334,-2.51c-1.162,6.63 7.095,5.47 7.148,5.46c3.729,-0.85 0.5,-3.09 0.481,-3.1c-7.572,-5.83 -0.852,-11.25 4.888,-14.37c7.944,-3.72 18.925,-6.02 31.053,-6.02zM70.694,11.98c-0.833,0 -1.925,0.22 -3.277,0.69c-1.352,0.46 -2.685,1.11 -4.037,1.95c-3.018,1.89 -4.536,4.23 -4.536,7.02c0,0.89 0.24,1.91 0.721,3.02l-1.258,0.12c-1.407,0 -2.592,-0.38 -3.536,-1.12c-0.945,-0.72 -1.409,-1.73 -1.409,-2.88c0,-1.15 0.427,-2.36 1.26,-3.68c0.852,-1.3 1.87,-2.34 3.092,-3.1c0.555,-0.35 1.222,-0.67 2.018,-0.93c0.481,-0.16 0.723,-0.31 0.723,-0.46c-0.018,-0.02 -0.056,-0.06 -0.074,-0.07c-0.13,-0.13 -0.223,-0.19 -0.297,-0.19c-0.296,0 -0.833,0.11 -1.573,0.32c-0.759,0.22 -1.519,0.52 -2.279,0.92c-1.406,0.75 -2.481,1.66 -3.258,2.77c-0.778,1.1 -1.166,2.27 -1.166,3.47c0,1.56 0.629,2.86 1.888,3.87c1.259,1.02 2.852,1.52 4.815,1.52h1.407c1.222,1.32 2.74,1.97 4.536,1.97c1.352,0 2.722,-0.35 4.11,-1.04c-1.629,2.8 -2.999,4.75 -4.11,5.85c-1.314,1.32 -2.74,1.97 -4.259,1.97c-1.166,0 -2.129,-0.19 -2.888,-0.56c-0.759,-0.37 -1.148,-0.76 -1.148,-1.19c0,-0.5 0.426,-0.85 1.259,-1.04c1.426,-0.29 2.129,-0.91 2.129,-1.85c0,-0.51 -0.203,-0.91 -0.592,-1.23c-0.389,-0.32 -0.908,-0.48 -1.537,-0.48c-0.815,0 -1.519,0.28 -2.13,0.81c-0.611,0.54 -0.907,1.23 -0.907,2.07c0,1.26 0.611,2.24 1.833,2.99c1.222,0.74 2.945,1.11 5.148,1.11c1.722,0 3.278,-0.24 4.648,-0.72c1.37,-0.51 2.444,-1.16 3.184,-1.97c0.759,-0.82 1.352,-1.79 1.778,-2.94c0.314,-1.02 0.648,-2.06 0.981,-3.1c0.222,-0.74 0.519,-1.39 0.907,-1.97c0.297,-0.44 0.575,-0.78 0.797,-1c-0.036,0 -0.037,-0.02 -0.037,-0.04c-0.037,-0.03 -0.111,-0.03 -0.185,-0.03c-0.13,0 -0.445,0.16 -0.963,0.5c-1.148,0.76 -1.778,1.17 -1.908,1.24c-1.055,0.71 -2.092,1.21 -3.054,1.54c-0.963,0.34 -1.963,0.5 -2.982,0.5c-1.795,0 -2.869,-0.52 -3.221,-1.56c2.444,-0.37 4.888,-1.43 7.313,-3.21c1.741,-1.28 3.074,-2.6 4.056,-3.96c0.888,-1.24 1.333,-2.32 1.333,-3.25l-0.056,0.02c0,-0.8 -0.296,-1.43 -0.907,-1.93c-0.611,-0.48 -1.389,-0.74 -2.352,-0.74zM94.081,25.89c0.496,0 0.754,0.16 0.758,0.49c-0.009,0.8 -0.952,2.17 -2.851,4.13c-0.407,-0.24 -0.611,-0.68 -0.611,-1.35c0,-0.78 0.315,-1.52 0.963,-2.23c0.648,-0.69 1.241,-1.04 1.741,-1.04zM71.453,12.52c0.574,0 1.056,0.18 1.407,0.54c0.352,0.35 0.537,0.81 0.537,1.39c0,0.63 -0.314,1.47 -0.981,2.49c-0.741,1.11 -1.759,2.24 -3.055,3.38c-1.296,1.15 -2.63,2.06 -4,2.76c-1.37,0.71 -2.721,1.17 -4.073,1.42c0.315,-2.1 1.574,-4.55 3.815,-7.34c2.499,-3.1 4.628,-4.64 6.35,-4.64z" fill="#0B579F"/>
</g>
</g>
</g></svg>