<svg viewBox="0 0 18.9015 18.8884" fill="none" xmlns="http://www.w3.org/2000/svg" xmlns:xlink="http://www.w3.org/1999/xlink" x="0" y="0"><defs><mask id="mask24_259_1565" style="mask-type:alpha" maskUnits="userSpaceOnUse" x="1" y="0.9999000000000251" width="18" height="18">
<path id="Vector 11" d="M12.94,1.7879l1.34,4.918l-7.15,7.6l-4.92,0.447l-0.31,4.135l17,-0.044l-0.05,-6.5l-0.09,-7.426z" fill="#D9D9D9"/>
</mask></defs><g id="Group 427319172">
<g id="Mask group_25">
<mask id="mask24_259_1565" style="mask-type:alpha" maskUnits="userSpaceOnUse" x="1854" y="798" width="18" height="18">
<path id="Vector 11" d="M1865.94 798.788L1867.28 803.706L1860.13 811.306L1855.21 811.753L1854.9 815.888L1871.9 815.844L1871.85 809.344L1871.76 801.918L1865.94 798.788Z" fill="#D9D9D9"/>
</mask>
<g mask="url(#mask24_259_1565)">
<path id="Vector_155" d="M17.83,10.5669v7.315h-7.26c-4.04,0 -7.32,-3.275 -7.32,-7.315c0,-4.04 3.28,-7.316 7.32,-7.316c4.04,0 7.26,3.276 7.26,7.316z" stroke="white" stroke-width="1.5" stroke-linecap="round" stroke-linejoin="round"/>
</g>
</g>
<g id="Group_16">
<path id="Vector_156" d="M0,7.3159v7.315h7.26c4.04,0 7.32,-3.275 7.32,-7.315c0,-4.04 -3.28,-7.316 -7.32,-7.316c-4.05,0 -7.26,3.276 -7.26,7.316z" stroke="white" stroke-width="1.5" stroke-linecap="round" stroke-linejoin="round"/>
<g id="Group_17">
<path id="Vector_157" d="M10.81,8.6189c0.6,0 1.08,-0.485 1.08,-1.084c0,-0.598 -0.48,-1.084 -1.08,-1.084c-0.6,0 -1.08,0.486 -1.08,1.084c0,0.599 0.48,1.084 1.08,1.084z" fill="white"/>
<path id="Vector_158" d="M7.29,8.6189c0.6,0 1.08,-0.485 1.08,-1.084c0,-0.598 -0.48,-1.084 -1.08,-1.084c-0.6,0 -1.09,0.486 -1.09,1.084c0,0.599 0.49,1.084 1.09,1.084z" fill="white"/>
<path id="Vector_159" d="M3.76,8.6189c0.6,0 1.09,-0.485 1.09,-1.084c0,-0.598 -0.49,-1.084 -1.09,-1.084c-0.59,0 -1.08,0.486 -1.08,1.084c0,0.599 0.49,1.084 1.08,1.084z" fill="white"/>
</g>
</g>
</g></svg>