<svg id="Layer_1" enable-background="new 0 0 34 34" viewBox="0 0 34 34" xmlns="http://www.w3.org/2000/svg"><g><path d="m33 10.5c0-.9-.6-1.7-1.4-2.1l-11.1-4.3c-2.2-.9-4.7-.9-6.9 0l-11.2 4.4c-.8.3-1.4 1.1-1.4 2s.6 1.7 1.4 2.1l3 1.2-3 1.2c-.8.2-1.4 1-1.4 1.9s.6 1.7 1.4 2.1l3 1.1-3 1.1c-.9.4-1.4 1.3-1.4 2.2s.6 1.7 1.4 2.1l11.7 4.5c1.8.7 3.9.7 5.8 0l11.7-4.5c.9-.3 1.4-1.1 1.4-2.1 0-.9-.5-1.7-1.4-2.1l-2.9-1.1 2.9-1.1c.9-.3 1.4-1.1 1.4-2.1 0-.9-.6-1.7-1.4-2.1l-3-1.2 3-1.1c.8-.3 1.4-1.2 1.4-2.1zm-6.4 10.5 4.5 1.7c.4.2.5.6.5.7s0 .5-.5.7l-11.7 4.5c-1.5.6-3.2.6-4.8 0l-11.6-4.6c-.4-.2-.5-.5-.5-.7 0-.1 0-.5.5-.7l4.4-1.6 6.7 2.6c1.8.7 3.9.8 5.8 0zm0-6.5 4.5 1.7c.4.2.5.5.5.7 0 .1 0 .5-.5.7l-11.7 4.5c-1.5.6-3.2.6-4.8 0l-11.6-4.5c-.4-.2-.5-.5-.5-.7 0-.1 0-.5.5-.7l4.5-1.7 6.6 2.6c1.7.7 3.9.8 5.8 0zm4.4-3.3-11.7 4.5c-1.5.6-3.2.6-4.8 0l-11.5-4.5c-.4-.2-.5-.5-.5-.7 0-.1 0-.5.5-.7l11.1-4.3c1.9-.7 4-.7 5.8 0l11.1 4.4c.4.2.5.5.5.7 0 0 0 .4-.5.6z"/></g></svg>