<svg viewBox="0 0 46 46" fill="none" xmlns="http://www.w3.org/2000/svg" xmlns:xlink="http://www.w3.org/1999/xlink" x="0" y="0"><path id="Vector_25" d="M30.09,13.69l-3.55,2.04c-0.97,-0.99 -2.2,-1.69 -3.54,-2.03v-4.1h-3.83v4.1c-1.35,0.34 -2.57,1.04 -3.55,2.03l-3.55,-2.04l-1.91,3.31l3.56,2.06c-0.19,0.66 -0.3,1.34 -0.31,2.03c0.01,0.69 0.12,1.37 0.31,2.04l-3.56,2.05l1.91,3.32l3.55,-2.04c0.98,0.98 2.2,1.68 3.55,2.02v4.11h3.83v-4.11c1.34,-0.34 2.57,-1.04 3.54,-2.02l3.55,2.04l1.92,-3.32l-3.56,-2.05c0.19,-0.67 0.29,-1.35 0.3,-2.04c-0.01,-0.69 -0.11,-1.37 -0.31,-2.03l3.57,-2.06zM21.08,24.92c-0.76,0 -1.5,-0.22 -2.13,-0.64c-0.63,-0.42 -1.12,-1.02 -1.41,-1.72c-0.29,-0.7 -0.37,-1.47 -0.22,-2.22c0.15,-0.74 0.52,-1.42 1.05,-1.96c0.54,-0.53 1.22,-0.9 1.96,-1.05c0.75,-0.14 1.52,-0.07 2.22,0.22c0.7,0.29 1.3,0.78 1.72,1.41c0.42,0.63 0.65,1.37 0.65,2.13c0,1.02 -0.41,1.99 -1.13,2.71c-0.72,0.72 -1.69,1.12 -2.71,1.12zM44.6,21.35c-1.71,-4.53 -3.95,-8.85 -6.65,-12.87c-2.25,-3.04 -5.28,-5.42 -8.77,-6.87c-3.5,-1.46 -7.32,-1.94 -11.06,-1.39c-3.72,0.53 -7.23,2.04 -10.16,4.37c-2.94,2.34 -5.2,5.41 -6.55,8.91c-1.35,3.5 -1.74,7.3 -1.13,11c0.61,3.7 2.19,7.18 4.59,10.06c0.57,0.68 0.88,1.53 0.88,2.42v9.02h24.92v-5.75h4.3c1.4,0 2.74,-0.51 3.79,-1.43c1.05,-0.91 1.73,-2.18 1.91,-3.56l0.86,-6.5h4.47v-4.24c0,0 -0.99,-2.24 -1.4,-3.17zM38.17,24.92l-1.3,9.84c-0.06,0.46 -0.28,0.88 -0.63,1.19c-0.35,0.3 -0.8,0.47 -1.27,0.47h-8.14v5.75h-17.25v-5.19c0,-1.78 -0.62,-3.5 -1.76,-4.87c-1.49,-1.77 -2.6,-3.82 -3.28,-6.03c-0.67,-2.21 -0.9,-4.53 -0.66,-6.83c0.24,-2.3 0.94,-4.52 2.06,-6.54c1.12,-2.03 2.63,-3.8 4.45,-5.23c1.81,-1.42 3.9,-2.47 6.13,-3.07c2.23,-0.61 4.56,-0.76 6.85,-0.44c2.29,0.31 4.49,1.08 6.48,2.26c1.98,1.18 3.71,2.75 5.08,4.61c2.48,3.78 4.55,7.82 6.16,12.04c0.3,0.68 0.6,1.37 0.9,2.05z" fill="currentColor"/></svg>