<svg viewBox="0 0 46 40" fill="none" xmlns="http://www.w3.org/2000/svg" xmlns:xlink="http://www.w3.org/1999/xlink" x="0" y="0"><path id="Vector_24" d="M44.08,24.76h-1.27c-0.48,0 -0.96,0.04 -1.43,0.11l-13.51,-10.07l3.24,-3.07c0.76,-0.73 0.79,-1.94 0.06,-2.7c-0.74,-0.76 -1.95,-0.78 -2.71,-0.05l-8,7.6c-0.4,0.4 -0.94,0.6 -1.51,0.56c-0.57,-0.05 -1.07,-0.34 -1.42,-0.81c-0.52,-0.73 -0.36,-1.86 0.32,-2.54l9.02,-8.44c1.71,-1.59 4.38,-1.98 6.47,-0.94l4.43,2.2c1.33,0.66 2.81,1.01 4.29,1.01h2.02c1.06,0 1.92,-0.85 1.92,-1.91c0,-1.05 -0.86,-1.9 -1.92,-1.9h-2.02c-0.89,0 -1.78,-0.21 -2.57,-0.6l-4.44,-2.21c-3.5,-1.74 -7.96,-1.09 -10.81,1.58l-1.19,1.11l-1.34,-1.22c-1.76,-1.59 -4.04,-2.47 -6.49,-2.47c-1.48,0 -2.96,0.35 -4.27,1l-4.44,2.21c-0.79,0.39 -1.68,0.6 -2.57,0.6h-2.02c-1.06,0 -1.92,0.85 -1.92,1.9c0,1.05 0.86,1.91 1.92,1.91h2.02c1.48,0 2.96,-0.35 4.29,-1.01l4.44,-2.2c1.96,-0.98 4.71,-0.72 6.46,0.88l1.13,1.02l-5.07,4.74c-2.06,2.04 -2.39,5.27 -0.77,7.5c1,1.38 2.98,2.4 4.69,2.4c1.52,0 2.98,-0.6 4.03,-1.65l1.93,-1.83l12.16,9.06c-0.06,0.05 -11.88,8.85 -11.88,8.85c-1.38,1.07 -3.32,1.07 -4.73,-0.02l-11.68,-8.7c-1.64,-1.23 -3.68,-1.9 -5.75,-1.9h-1.27c-1.06,0 -1.92,0.85 -1.92,1.9c0,1.05 0.86,1.91 1.92,1.91h1.27c1.24,0 2.47,0.4 3.45,1.14l11.65,8.68c1.39,1.07 3.06,1.61 4.72,1.61c1.65,0 3.3,-0.53 4.67,-1.59l11.68,-8.7c0.98,-0.74 2.21,-1.14 3.45,-1.14h1.27c1.06,0 1.92,-0.85 1.92,-1.91c0,-1.05 -0.86,-1.9 -1.92,-1.9z" fill="currentColor"/></svg>