<svg viewBox="0 0 15.0625 15.0625" fill="none" xmlns="http://www.w3.org/2000/svg" xmlns:xlink="http://www.w3.org/1999/xlink" x="0" y="0"><path id="Vector_17" d="M7.5312,14.5624c3.88,0 7.03,-3.1479 7.03,-7.0312c0,-3.8833 -3.15,-7.0312 -7.03,-7.0312M7.5312,14.5624c-3.88,0 -7.03,-3.1479 -7.03,-7.0312c0,-3.8833 3.15,-7.0312 7.03,-7.0312M7.5312,14.5624c-1.7,0 -3.08,-3.1479 -3.08,-7.0312c0,-3.8833 1.38,-7.0312 3.08,-7.0312M7.5312,14.5624c1.7,0 3.08,-3.1479 3.08,-7.0312c0,-3.8833 -1.38,-7.0312 -3.08,-7.0312M1.8212,10.9487c1.29,-0.7377 3.43,-1.2202 5.85,-1.2202c2.53,0 4.75,0.5257 6.01,1.3183M1.8212,4.1137c1.29,0.7376 3.43,1.2202 5.85,1.2202c2.53,0 4.75,-0.5257 6.01,-1.3183" stroke="white"/></svg>