<svg viewBox="0 0 15.5 19.4965" fill="none" xmlns="http://www.w3.org/2000/svg" xmlns:xlink="http://www.w3.org/1999/xlink" x="0" y="0"><defs><mask id="mask2_552_482" style="mask-type:alpha" maskUnits="userSpaceOnUse" x="-0.25" y="-0.9165000000000418" width="16" height="21">
<path id="Union" d="M7.83,0.0055c4.23,0.045 7.67,3.431 7.67,7.63c0,1.397 -0.24,2.186 -0.6,3.299v0.001c-0.3,0.915 -0.88,1.895 -1.55,2.823c-0.68,0.938 -1.47,1.867 -2.22,2.684c-0.75,0.818 -1.47,1.533 -2,2.043c-0.27,0.255 -0.48,0.46 -0.64,0.601c-0.03,0.035 -0.07,0.065 -0.1,0.092c0,0.008 -0.01,0.018 -0.01,0.026c-0.16,0.203 -0.37,0.263 -0.5,0.282c0,0 0,0 0,0.001c-0.02,0.002 -0.04,0.007 -0.05,0.008c-0.01,0 -0.02,-0.001 -0.02,-0.001c-0.04,0.003 -0.08,0.003 -0.12,0c-0.01,0 -0.01,0.001 -0.02,0.001c-0.01,-0.001 -0.03,-0.006 -0.05,-0.008c0,-0.001 0,-0.001 -0.01,-0.001c-0.13,-0.019 -0.33,-0.081 -0.48,-0.282c-0.01,-0.008 -0.02,-0.016 -0.02,-0.024c-0.03,-0.027 -0.07,-0.058 -0.1,-0.094c-0.16,-0.141 -0.38,-0.346 -0.64,-0.602c-0.53,-0.511 -1.25,-1.227 -2,-2.047c-0.75,-0.819 -1.55,-1.749 -2.22,-2.688c-0.67,-0.931 -1.26,-1.913 -1.55,-2.831v-0.001c-0.36,-1.107 -0.6,-1.89 -0.6,-3.285c0,-4.227 3.48,-7.632 7.75,-7.632c0.03,0 0.06,0.002 0.08,0.005zM7.71,1.5005c-3.45,0.021 -6.21,2.77 -6.21,6.132c0,1.157 0.18,1.76 0.52,2.827l0.1,0.268c0.25,0.638 0.69,1.372 1.24,2.146c0.63,0.874 1.38,1.756 2.11,2.549c0.73,0.792 1.43,1.486 1.94,1.982c0.12,0.119 0.24,0.225 0.34,0.32c0.1,-0.094 0.22,-0.2 0.34,-0.319c0.51,-0.496 1.21,-1.188 1.94,-1.979c0.72,-0.791 1.47,-1.672 2.1,-2.545c0.64,-0.882 1.12,-1.712 1.34,-2.406v-0.001c0.35,-1.067 0.53,-1.679 0.53,-2.839c0,-3.375 -2.79,-6.133 -6.25,-6.133c-0.01,0 -0.03,-0.002 -0.04,-0.002zM7.75,3.1495c2.32,0 4.25,1.821 4.25,4.126c0,2.305 -1.93,4.126 -4.25,4.126c-2.32,0 -4.25,-1.821 -4.25,-4.126c0,-2.305 1.93,-4.126 4.25,-4.126zM7.75,4.6495c-1.55,0 -2.75,1.201 -2.75,2.626c0,1.425 1.21,2.626 2.75,2.626c1.55,0 2.75,-1.201 2.75,-2.626c0,-1.425 -1.2,-2.626 -2.75,-2.626z" fill="#333333"/>
</mask></defs><g id="Mask group_3">
<mask id="mask2_552_482" style="mask-type:alpha" maskUnits="userSpaceOnUse" x="1030" y="837" width="16" height="21">
<path id="Union" d="M1038.08 837.922C1042.31 837.967 1045.75 841.353 1045.75 845.552C1045.75 846.949 1045.51 847.738 1045.15 848.851L1045.15 848.852C1044.85 849.767 1044.27 850.747 1043.6 851.675C1042.92 852.613 1042.13 853.542 1041.38 854.359C1040.63 855.177 1039.91 855.892 1039.38 856.402C1039.11 856.657 1038.9 856.862 1038.74 857.003C1038.71 857.038 1038.67 857.068 1038.64 857.095C1038.64 857.103 1038.63 857.113 1038.63 857.121C1038.47 857.324 1038.26 857.384 1038.13 857.403C1038.13 857.403 1038.13 857.403 1038.13 857.404C1038.11 857.406 1038.09 857.411 1038.08 857.412C1038.07 857.412 1038.06 857.411 1038.06 857.411C1038.02 857.414 1037.98 857.414 1037.94 857.411C1037.93 857.411 1037.93 857.412 1037.92 857.412C1037.91 857.411 1037.89 857.406 1037.87 857.404C1037.87 857.403 1037.87 857.403 1037.86 857.403C1037.73 857.384 1037.53 857.322 1037.38 857.121C1037.37 857.113 1037.36 857.105 1037.36 857.097C1037.33 857.07 1037.29 857.039 1037.26 857.003C1037.1 856.862 1036.88 856.657 1036.62 856.401C1036.09 855.89 1035.37 855.174 1034.62 854.354C1033.87 853.535 1033.07 852.605 1032.4 851.666C1031.73 850.735 1031.14 849.753 1030.85 848.835V848.834C1030.49 847.727 1030.25 846.944 1030.25 845.549C1030.25 841.322 1033.73 837.917 1038 837.917C1038.03 837.917 1038.06 837.919 1038.08 837.922ZM1037.96 839.417C1034.51 839.438 1031.75 842.187 1031.75 845.549C1031.75 846.706 1031.93 847.309 1032.27 848.376L1032.37 848.644C1032.62 849.282 1033.06 850.016 1033.61 850.79C1034.24 851.664 1034.99 852.546 1035.72 853.339C1036.45 854.131 1037.15 854.825 1037.66 855.321C1037.78 855.44 1037.9 855.546 1038 855.641C1038.1 855.547 1038.22 855.441 1038.34 855.322C1038.85 854.826 1039.55 854.134 1040.28 853.343C1041 852.552 1041.75 851.671 1042.38 850.798C1043.02 849.916 1043.5 849.086 1043.72 848.392V848.391C1044.07 847.324 1044.25 846.712 1044.25 845.552C1044.25 842.177 1041.46 839.419 1038 839.419C1037.99 839.419 1037.97 839.417 1037.96 839.417ZM1038 841.066C1040.32 841.066 1042.25 842.887 1042.25 845.192C1042.25 847.497 1040.32 849.318 1038 849.318C1035.68 849.318 1033.75 847.497 1033.75 845.192C1033.75 842.887 1035.68 841.066 1038 841.066ZM1038 842.566C1036.45 842.566 1035.25 843.767 1035.25 845.192C1035.25 846.617 1036.46 847.818 1038 847.818C1039.55 847.818 1040.75 846.617 1040.75 845.192C1040.75 843.767 1039.55 842.566 1038 842.566Z" fill="#333333"/>
</mask>
<g mask="url(#mask2_552_482)">
<rect id="Rectangle 3468257" x="-2.25" y="-0.24950000000001182" width="20" height="20" fill="#0B579F"/>
<circle id="Ellipse 456" cx="7.75" cy="7.250499999999988" r="5" fill="#0B579F"/>
</g>
</g></svg>