<svg viewBox="0 0 19 19" fill="none" xmlns="http://www.w3.org/2000/svg" xmlns:xlink="http://www.w3.org/1999/xlink" x="0" y="0"><path id="Vector_22" d="M4.62,0.75c0.25,0 0.57,0.058 0.84,0.256l0.1,0.093l0.03,0.021l0.02,0.024l2.46,2.84v0c0.55,0.591 0.54,1.516 -0.04,2.091v0l-0.88,0.878c-0.17,0.191 -0.27,0.344 -0.33,0.467c-0.14,0.4 -0.37,1.453 0.7,2.603l1.48,1.482c1.14,1.057 2.19,0.82 2.61,0.673c0.1,-0.048 0.24,-0.144 0.44,-0.324l0.88,-0.877c0.56,-0.567 1.49,-0.592 2.1,-0.022v0l2.82,2.44l0.03,0.023l0.02,0.027c0.33,0.347 0.38,0.816 0.33,1.183l0.01,0.001c-0.06,0.386 -0.23,0.799 -0.52,1.089l-0.01,-0.001l-1.16,1.167l-0.02,0.023l-0.03,0.022c-2.31,1.934 -4.92,1.412 -6.79,0.53c-1.88,-0.882 -3.23,-2.203 -3.28,-2.252l-2.63,-2.636c-0.05,-0.049 -1.37,-1.392 -2.25,-3.266c-0.89,-1.874 -1.42,-4.48 0.51,-6.785l0.02,-0.026l0.03,-0.023l1.18,-1.185c0.29,-0.288 0.7,-0.469 1.09,-0.519v-0.001c0.07,-0.01 0.15,-0.016 0.24,-0.016z" stroke="#0B579F" stroke-width="1.5"/></svg>