<svg viewBox="0 0 35 46" fill="none" xmlns="http://www.w3.org/2000/svg" xmlns:xlink="http://www.w3.org/1999/xlink" x="0" y="0"><path id="Vector_23" d="M9.723,38.62v7.38h15.555v-7.06c-0.038,-1.63 0.278,-3.26 0.925,-4.76c0.648,-1.51 1.613,-2.86 2.832,-3.96c2.66,-2.3 4.551,-5.34 5.424,-8.72c0.873,-3.38 0.686,-6.93 -0.534,-10.21c-1.221,-3.27 -3.419,-6.1 -6.304,-8.11c-2.886,-2.02 -6.323,-3.13 -9.86,-3.18c-3.536,-0.05 -7.006,0.96 -9.951,2.89c-2.945,1.93 -5.228,4.69 -6.547,7.92c-1.319,3.24 -1.613,6.79 -0.843,10.19c0.77,3.4 2.568,6.5 5.157,8.87c1.269,1.1 2.292,2.44 3.005,3.95c0.714,1.5 1.102,3.14 1.141,4.8zM21.39,42.17h-7.778v-3.55c0,-0.1 -0.014,-0.19 -0.016,-0.29h7.825c0,0.21 -0.031,0.41 -0.031,0.61zM4.006,15.48c0.289,-2.15 1.103,-4.19 2.371,-5.97c1.269,-1.77 2.954,-3.21 4.912,-4.2c1.958,-0.99 4.13,-1.5 6.331,-1.48c2.2,0.02 4.363,0.57 6.303,1.59c1.94,1.02 3.599,2.49 4.835,4.29c1.237,1.79 2.014,3.85 2.264,6.01c0.251,2.15 -0.033,4.34 -0.825,6.36c-0.793,2.02 -2.072,3.82 -3.727,5.25c-2.164,1.91 -3.714,4.41 -4.458,7.17h-2.567v-13.76c1.134,-0.4 2.116,-1.13 2.812,-2.1c0.696,-0.96 1.072,-2.12 1.077,-3.3h-3.889c0,0.51 -0.205,1 -0.569,1.35c-0.365,0.36 -0.86,0.57 -1.375,0.57c-0.516,0 -1.011,-0.21 -1.375,-0.57c-0.365,-0.35 -0.57,-0.84 -0.57,-1.35h-3.889c0.005,1.18 0.382,2.34 1.078,3.3c0.696,0.97 1.678,1.7 2.811,2.1v13.76h-2.57c-0.877,-2.85 -2.522,-5.42 -4.76,-7.43c-1.596,-1.46 -2.812,-3.27 -3.546,-5.29c-0.735,-2.01 -0.966,-4.17 -0.674,-6.3z" fill="currentColor"/></svg>