<svg viewBox="0 0 46 46" fill="none" xmlns="http://www.w3.org/2000/svg" xmlns:xlink="http://www.w3.org/1999/xlink" x="0" y="0"><path id="Vector_23" d="M44.21,32.96l-8.283,7.54c-3.896,3.55 -8.943,5.5 -14.21,5.5h-19.799c-1.061,0 -1.918,-0.86 -1.918,-1.92c0,-1.06 0.857,-1.91 1.918,-1.91h19.797c4.31,0 8.438,-1.6 11.626,-4.5l8.218,-7.48c0.666,-0.67 0.825,-1.81 0.299,-2.54c-0.345,-0.48 -0.847,-0.76 -1.419,-0.81c-0.558,-0.04 -1.113,0.16 -1.512,0.56l-8.122,7.44c-1.032,0.98 -2.42,1.58 -3.949,1.58h-9.592c-1.06,0 -1.918,-0.86 -1.918,-1.92c0,-1.06 0.858,-1.92 1.918,-1.92h9.592c0.483,0 1.918,-0.22 1.918,-1.91c0,-1.06 -0.859,-1.92 -1.918,-1.92h-9.423c-4.609,0 -8.947,1.8 -12.208,5.05l-1.914,2.02c-0.378,0.4 -0.884,0.6 -1.393,0.6c-0.474,0 -0.949,-0.18 -1.32,-0.53c-0.767,-0.73 -0.799,-1.94 -0.07,-2.71l1.95,-2.05c4.023,-4.02 9.321,-6.21 14.957,-6.21h9.423c2.371,0 4.412,1.44 5.292,3.49l4.126,-3.78c1.134,-1.14 2.793,-1.75 4.472,-1.61c1.688,0.14 3.228,1.01 4.226,2.39c1.619,2.25 1.291,5.5 -0.762,7.55zM7.685,4.14c-0.081,-1.11 0.33,-2.21 1.128,-3c0.796,-0.8 1.893,-1.22 3.009,-1.13c5.519,0.39 9.179,2.29 11.197,5.97c2.02,-3.68 5.678,-5.58 11.199,-5.97c1.134,-0.09 2.214,0.33 3.008,1.13c0.798,0.79 1.208,1.89 1.128,3.01c-0.597,8.45 -4.758,12.54 -13.417,13.05v1.97c0,1.06 -0.857,1.91 -1.918,1.91c-1.061,0 -1.918,-0.85 -1.918,-1.91v-1.97c-8.659,-0.51 -12.82,-4.6 -13.416,-13.06zM24.999,13.36c6.447,-0.43 9.081,-3.14 9.53,-9.48c-6.386,0.41 -9.1,3.03 -9.53,9.48zM11.55,3.83c0.41,6.38 3.04,9.1 9.488,9.53c-0.43,-6.45 -3.141,-9.08 -9.488,-9.53z" fill="currentColor"/></svg>