<svg viewBox="0 0 46 46" fill="none" xmlns="http://www.w3.org/2000/svg" xmlns:xlink="http://www.w3.org/1999/xlink" x="0" y="0"><path id="Vector_24" d="M23,30.667c-1.52,0 -3,-0.45 -4.26,-1.292c-1.26,-0.843 -2.24,-2.04 -2.82,-3.441c-0.58,-1.401 -0.74,-2.942 -0.44,-4.43c0.3,-1.487 1.03,-2.853 2.1,-3.925c1.07,-1.072 2.44,-1.803 3.92,-2.098c1.49,-0.296 3.03,-0.144 4.43,0.436c1.4,0.58 2.6,1.563 3.44,2.824c0.85,1.26 1.3,2.743 1.3,4.259c0,2.033 -0.81,3.983 -2.25,5.421c-1.44,1.438 -3.39,2.246 -5.42,2.246zM23,19.167c-0.76,0 -1.5,0.225 -2.13,0.646c-0.63,0.421 -1.12,1.02 -1.41,1.72c-0.29,0.701 -0.37,1.471 -0.22,2.215c0.15,0.743 0.51,1.426 1.05,1.963c0.54,0.536 1.22,0.901 1.96,1.049c0.75,0.148 1.52,0.072 2.22,-0.218c0.7,-0.291 1.3,-0.782 1.72,-1.412c0.42,-0.631 0.64,-1.372 0.64,-2.13c0,-1.017 -0.4,-1.992 -1.12,-2.711c-0.72,-0.718 -1.69,-1.122 -2.71,-1.122zM34.5,44.083c0,-3.05 -1.21,-5.975 -3.37,-8.131c-2.15,-2.157 -5.08,-3.369 -8.13,-3.369c-3.05,0 -5.98,1.212 -8.13,3.369c-2.16,2.156 -3.37,5.081 -3.37,8.131c0,0.509 0.2,0.996 0.56,1.356c0.36,0.359 0.85,0.561 1.36,0.561c0.51,0 0.99,-0.202 1.35,-0.561c0.36,-0.36 0.56,-0.847 0.56,-1.356c0,-2.033 0.81,-3.983 2.25,-5.421c1.44,-1.438 3.39,-2.245 5.42,-2.245c2.03,0 3.98,0.807 5.42,2.245c1.44,1.438 2.25,3.388 2.25,5.421c0,0.509 0.2,0.996 0.56,1.356c0.36,0.359 0.85,0.561 1.35,0.561c0.51,0 1,-0.202 1.36,-0.561c0.36,-0.36 0.56,-0.847 0.56,-1.356zM34.5,15.333c-1.52,0 -3,-0.449 -4.26,-1.292c-1.26,-0.842 -2.24,-2.04 -2.82,-3.44c-0.58,-1.401 -0.74,-2.943 -0.44,-4.43c0.3,-1.487 1.03,-2.853 2.1,-3.925c1.07,-1.073 2.44,-1.803 3.92,-2.099c1.49,-0.296 3.03,-0.144 4.43,0.437c1.4,0.58 2.6,1.563 3.44,2.823c0.85,1.261 1.3,2.743 1.3,4.26c0,2.033 -0.81,3.983 -2.25,5.421c-1.44,1.438 -3.39,2.245 -5.42,2.245zM34.5,3.833c-0.76,0 -1.5,0.225 -2.13,0.646c-0.63,0.422 -1.12,1.02 -1.41,1.721c-0.29,0.7 -0.37,1.471 -0.22,2.215c0.15,0.743 0.51,1.426 1.05,1.962c0.54,0.536 1.22,0.901 1.96,1.049c0.75,0.148 1.52,0.072 2.22,-0.218c0.7,-0.29 1.3,-0.781 1.72,-1.412c0.42,-0.63 0.64,-1.371 0.64,-2.129c0,-1.017 -0.4,-1.992 -1.12,-2.711c-0.72,-0.719 -1.69,-1.123 -2.71,-1.123zM46,28.75c0,-3.049 -1.22,-5.972 -3.37,-8.128c-2.16,-2.156 -5.08,-3.369 -8.13,-3.372c-0.51,0 -1,0.202 -1.36,0.561c-0.35,0.36 -0.56,0.847 -0.56,1.356c0,0.508 0.21,0.996 0.56,1.355c0.36,0.359 0.85,0.561 1.36,0.561c2.03,0 3.98,0.808 5.42,2.246c1.44,1.438 2.25,3.388 2.25,5.421c0,0.508 0.2,0.996 0.56,1.355c0.36,0.36 0.85,0.562 1.35,0.562c0.51,0 1,-0.202 1.36,-0.562c0.36,-0.359 0.56,-0.847 0.56,-1.355zM11.5,15.333c-1.52,0 -3,-0.449 -4.26,-1.292c-1.26,-0.842 -2.24,-2.04 -2.82,-3.44c-0.58,-1.401 -0.74,-2.943 -0.44,-4.43c0.3,-1.487 1.03,-2.853 2.1,-3.925c1.07,-1.073 2.44,-1.803 3.92,-2.099c1.49,-0.296 3.03,-0.144 4.43,0.437c1.4,0.58 2.6,1.563 3.44,2.823c0.85,1.261 1.3,2.743 1.3,4.26c0,2.033 -0.81,3.983 -2.25,5.421c-1.44,1.438 -3.39,2.245 -5.42,2.245zM11.5,3.833c-0.76,0 -1.5,0.225 -2.13,0.646c-0.63,0.422 -1.12,1.02 -1.41,1.721c-0.29,0.7 -0.37,1.471 -0.22,2.215c0.15,0.743 0.51,1.426 1.05,1.962c0.54,0.536 1.22,0.901 1.96,1.049c0.75,0.148 1.52,0.072 2.22,-0.218c0.7,-0.29 1.3,-0.781 1.72,-1.412c0.42,-0.63 0.64,-1.371 0.64,-2.129c0,-1.017 -0.4,-1.992 -1.12,-2.711c-0.72,-0.719 -1.69,-1.123 -2.71,-1.123zM3.83,28.75c0,-2.033 0.81,-3.983 2.25,-5.421c1.44,-1.438 3.39,-2.246 5.42,-2.246c0.51,0 1,-0.202 1.36,-0.561c0.35,-0.359 0.56,-0.847 0.56,-1.355c0,-0.509 -0.21,-0.996 -0.56,-1.356c-0.36,-0.359 -0.85,-0.561 -1.36,-0.561c-3.05,0.003 -5.97,1.216 -8.13,3.372c-2.15,2.156 -3.37,5.079 -3.37,8.128c0,0.508 0.2,0.996 0.56,1.355c0.36,0.36 0.85,0.562 1.36,0.562c0.5,0 0.99,-0.202 1.35,-0.562c0.36,-0.359 0.56,-0.847 0.56,-1.355z" fill="currentColor"/></svg>