<svg viewBox="0 0 14 14" fill="none" xmlns="http://www.w3.org/2000/svg" xmlns:xlink="http://www.w3.org/1999/xlink" x="0" y="0"><path id="Vector_19" d="M12.805,14h-3.525c-0.526,0 -0.955,-0.444 -0.955,-0.989v-3.581h-2.652v3.581c0,0.545 -0.428,0.989 -0.955,0.989h-3.523c-0.659,0 -1.195,-0.555 -1.195,-1.237v-6.96c0,-0.613 0.286,-1.195 0.764,-1.556l5.141,-3.877c0.655,-0.493 1.535,-0.493 2.19,0l5.141,3.877c0.478,0.361 0.764,0.943 0.764,1.556v6.96c0,0.682 -0.536,1.237 -1.195,1.237zM9.557,12.725h3.211v-6.922c0,-0.207 -0.096,-0.403 -0.258,-0.525l-5.141,-3.877c-0.221,-0.166 -0.517,-0.166 -0.738,0l-5.141,3.877c-0.162,0.122 -0.258,0.318 -0.258,0.525v6.922h3.209v-3.582c0,-0.545 0.429,-0.989 0.955,-0.989h3.206c0.527,0 0.955,0.444 0.955,0.989z" fill="currentColor"/></svg>