<svg enable-background="new 0 0 512 512" height="512" viewBox="0 0 512 512" width="512" xmlns="http://www.w3.org/2000/svg"><g id="_x33_95_x2C_Architect_x2C_design_x2C_plan_x2C_Engineering"><g id="XMLID_437_"><path id="XMLID_454_" d="m102.469 331.158h332.613c24.855 0 51.97-15.081 51.97-38.73v-184.512c0-31.008-25.228-56.235-56.236-56.235-2.762 0-5 2.238-5 5v40.736h-314.934v-40.736c0-2.762-2.239-5-5-5-31.244 0-56.662 25.419-56.662 56.662v184.085c0 20.632 24.883 38.73 53.249 38.73zm80.395-66.613-17.93-17.916c-1.127-1.127-1.747-2.608-1.746-4.168.001-1.554.619-3.024 1.746-4.148l23.91-23.91c1.118-1.122 2.59-1.74 4.144-1.74s3.026.618 4.151 1.746l17.931 17.933c1.585 1.586 4.031 1.922 5.983.824 6.446-3.619 13.4-6.484 20.67-8.518 2.16-.605 3.653-2.572 3.653-4.815v-25.611c0-3.238 2.442-5.68 5.68-5.68h34.157c3.238 0 5.68 2.441 5.68 5.68v25.611c0 2.243 1.494 4.211 3.653 4.815 7.298 2.041 14.251 4.906 20.665 8.516 1.954 1.101 4.402.764 5.987-.821l17.94-17.939c1.118-1.122 2.589-1.74 4.144-1.74s3.026.618 4.152 1.747l23.917 23.903c2.327 2.328 2.324 5.983.001 8.314l-17.932 17.917c-1.585 1.584-1.923 4.03-.826 5.984 3.63 6.467 6.49 13.423 8.5 20.675.6 2.165 2.571 3.664 4.818 3.664h25.626c3.338 0 5.664 2.985 5.664 5.665v20.625h-80.986c-1.002-25.661-22.18-46.231-48.082-46.231-25.894 0-47.065 20.57-48.067 46.231h-81.002v-20.625c0-2.68 2.327-5.665 5.665-5.665h25.624c2.247 0 4.218-1.499 4.818-3.664 2.014-7.264 4.878-14.218 8.512-20.668 1.104-1.955.767-4.405-.82-5.991zm47.209 56.498c1.051-20.092 17.722-36.116 38.063-36.116 20.349 0 37.026 16.024 38.078 36.116zm205.742-259.094c23.153 2.5 41.236 22.161 41.236 45.967v163.381c-9.018-8.775-24.372-16.129-41.236-17.409zm-376.595 46.394c0-24.041 18.274-43.895 41.662-46.396v191.939c-15.66 1.165-31.696 7.67-41.662 17.377zm46.662 155.353c2.761 0 5-2.238 5-5v-151.279h314.933v151.279c0 2.762 2.238 5 5 5 22.902 0 46.236 14.5 46.236 28.732 0 15.305-19.612 28.73-41.97 28.73h-27.878v-20.625c0-8.491-7.173-15.665-15.664-15.665h-21.896c-1.739-5.486-3.925-10.801-6.526-15.875l15.311-15.299c6.178-6.199 6.175-16.271-.008-22.452l-23.91-23.897c-3.009-3.02-6.997-4.682-11.229-4.682s-8.219 1.663-11.22 4.675l-15.306 15.305c-5.046-2.591-10.358-4.778-15.863-6.532v-21.889c0-8.792-6.887-15.68-15.68-15.68h-34.157c-8.792 0-15.68 6.888-15.68 15.68v21.889c-5.491 1.751-10.801 3.938-15.862 6.534l-15.299-15.3c-3.009-3.02-6.996-4.682-11.229-4.682-4.232 0-8.219 1.663-11.221 4.676l-23.897 23.897c-3.015 3.005-4.678 6.988-4.681 11.217-.004 4.234 1.657 8.23 4.676 11.249l15.299 15.287c-2.605 5.068-4.794 10.385-6.537 15.879h-21.895c-8.492 0-15.665 7.174-15.665 15.665v20.625h-26.597c-22.231 0-43.249-13.963-43.249-28.73.002-14.5 23.115-28.732 46.664-28.732z"/><path id="XMLID_451_" d="m465.211 452.975c-12.491 0-22.653 10.163-22.653 22.654s10.162 22.653 22.653 22.653 22.654-10.162 22.654-22.653c0-12.49-10.163-22.654-22.654-22.654zm0 35.308c-6.978 0-12.653-5.676-12.653-12.653s5.676-12.654 12.653-12.654 12.654 5.677 12.654 12.654-5.677 12.653-12.654 12.653z"/><path id="XMLID_448_" d="m145.482 55.335c12.491 0 22.654-10.163 22.654-22.654s-10.163-22.653-22.654-22.653-22.653 10.162-22.653 22.653 10.161 22.654 22.653 22.654zm0-35.308c6.977 0 12.654 5.676 12.654 12.653s-5.676 12.654-12.654 12.654c-6.977 0-12.653-5.677-12.653-12.654s5.676-12.653 12.653-12.653z"/><circle id="XMLID_292_" cx="29.135" cy="493.283" r="8.69"/><circle id="XMLID_291_" cx="482.865" cy="23.717" r="8.69"/><path id="XMLID_438_" d="m392.352 451.542 87.099-40.143c3.913-1.803 3.857-7.4-.093-9.124-9.576-4.178-76.559-33.397-87.101-37.995-.409-.178-1.426-.417-1.999-.417h-331.345c-2.761 0-5 2.238-5 5v78.14c0 2.762 2.239 5 5 5h331.346.002s.001 0 .002 0c.003 0 .005-.001.008-.001.639-.002 1.427-.158 2.081-.46zm-36.493-40.536 3.854 4.944h-242.005v-16.052h242.017l-3.866 4.959c-1.409 1.808-1.409 4.341 0 6.149zm11.661-21.108h-249.812v-16.036h262.313zm-249.812 36.052h249.801l12.513 16.052h-262.314zm248.434-18.018 25.674-32.935 39.134 17.071v30.673l-39.185 18.061zm74.808 10.199v-21.701l24.189 10.552zm-377.037-44.269h43.795v68.14h-43.795z"/></g></g></svg>