<svg viewBox="0 0 46 46" fill="none" xmlns="http://www.w3.org/2000/svg" xmlns:xlink="http://www.w3.org/1999/xlink" x="0" y="0"><path id="Vector_22" d="M44.126,16.84c-0.56,-0.51 -1.216,-0.91 -1.929,-1.16c-0.714,-0.26 -1.471,-0.38 -2.228,-0.34c-0.757,0.04 -1.5,0.22 -2.186,0.54c-0.686,0.33 -1.302,0.78 -1.812,1.34l-6.167,6.78c-0.536,-0.89 -1.292,-1.63 -2.196,-2.14c-0.903,-0.51 -1.923,-0.78 -2.961,-0.78h-18.896c-1.525,0 -2.988,0.61 -4.067,1.69c-1.078,1.08 -1.684,2.54 -1.684,4.06v13.42c0,1.53 0.606,2.99 1.684,4.07c1.079,1.07 2.542,1.68 4.067,1.68h20.029l18.762,-21.05c1.007,-1.14 1.528,-2.63 1.45,-4.14c-0.077,-1.52 -0.748,-2.94 -1.866,-3.97zM41.68,22.4l-17.618,19.77h-18.311c-0.508,0 -0.996,-0.21 -1.355,-0.56c-0.36,-0.36 -0.562,-0.85 -0.562,-1.36v-13.42c0,-0.5 0.202,-0.99 0.562,-1.35c0.359,-0.36 0.847,-0.56 1.355,-0.56h18.896c0.555,-0.01 1.091,0.2 1.498,0.58c0.407,0.38 0.656,0.9 0.695,1.45c0.04,0.55 -0.132,1.1 -0.481,1.53c-0.349,0.43 -0.85,0.72 -1.399,0.79l-9.896,1.42l0.544,3.79l9.894,-1.41c1.085,-0.16 2.107,-0.61 2.955,-1.31c0.849,-0.69 1.493,-1.61 1.863,-2.64l8.486,-9.32c0.171,-0.19 0.377,-0.34 0.608,-0.45c0.23,-0.11 0.48,-0.17 0.734,-0.18c0.513,-0.02 1.014,0.16 1.396,0.5c0.375,0.35 0.6,0.83 0.625,1.33c0.026,0.51 -0.15,1.01 -0.489,1.39zM19.981,17.54l1.106,0.78l1.106,-0.78c0.869,-0.62 8.479,-6.15 8.479,-11.41c0.047,-1.57 -0.531,-3.1 -1.609,-4.25c-1.078,-1.15 -2.567,-1.82 -4.142,-1.88c-1.405,-0.02 -2.768,0.48 -3.834,1.39c-1.065,-0.91 -2.429,-1.41 -3.834,-1.39c-1.575,0.06 -3.064,0.73 -4.142,1.88c-1.077,1.15 -1.656,2.68 -1.609,4.25c0,5.26 7.611,10.79 8.479,11.41zM17.253,3.83c0.256,-0.01 0.513,0.02 0.753,0.12c0.241,0.09 0.459,0.23 0.64,0.41c0.182,0.18 0.323,0.4 0.413,0.64c0.09,0.24 0.128,0.49 0.111,0.75h3.834c-0.017,-0.26 0.021,-0.51 0.112,-0.75c0.09,-0.24 0.231,-0.46 0.412,-0.64c0.182,-0.18 0.4,-0.32 0.64,-0.41c0.24,-0.1 0.497,-0.13 0.753,-0.12c0.557,0.06 1.07,0.33 1.429,0.76c0.358,0.43 0.534,0.99 0.488,1.54c0,2.06 -3.067,5.31 -5.751,7.44c-2.377,-1.91 -5.751,-5.22 -5.751,-7.44c-0.045,-0.55 0.13,-1.11 0.489,-1.54c0.358,-0.43 0.871,-0.7 1.428,-0.76z" fill="currentColor"/></svg>