<svg viewBox="0 0 291.0009 40" fill="none" xmlns="http://www.w3.org/2000/svg" xmlns:xlink="http://www.w3.org/1999/xlink" x="0" y="0"><g id="Frame 1321318329">
<g id="Group">
<g id="Group 427319161">
<path id="Exclude" d="M43,0c23.733,0 43,8.9515 43,20c0,11.0485 -19.252,20 -43,20c-23.7481,-0.0001 -42.9998,-8.9516 -43,-20c0,-11.0485 19.267,-19.9999 43,-20zM43,2.0068c-21.3702,0.0001 -38.701,8.0547 -38.7012,18.0088c0,9.9543 17.3309,18.0087 38.7012,18.0088c21.37,0 38.702,-8.0545 38.702,-18.0088c0,-9.9542 -17.316,-18.0087 -38.702,-18.0088zM43.0156,3.207c1.509,0 2.9879,0.0456 4.4512,0.1368c-11.7218,-0.456 -9.6338,2.7363 -9.6338,2.7363c1.4872,1.4369 5.4059,0.1929 5.4414,0.1816c10.2436,-2.9027 19.7856,-0.3335 25.2736,1.8701c6.539,3.0395 10.594,7.2492 10.594,11.8994c0,0.699 -0.107,1.3832 -0.275,2.0518c0.956,-5.4162 -5.823,-4.4773 -5.884,-4.4687v-0.0147c-3.094,0.6991 -0.396,2.5381 -0.396,2.5381c0.085,0.065 0.167,0.1304 0.248,0.1953c-0.88,0.5306 -2.921,2.2184 -6.132,5.0615c-0.762,0.6838 -1.372,1.1702 -1.829,1.4893c-0.442,0.3191 -0.823,0.4707 -1.144,0.4707c-0.197,-0.0001 -0.288,-0.0607 -0.289,-0.1973c0,-0.2279 0.305,-0.8669 0.914,-1.9004l3.705,-6.2304l-3.765,0.2129c-3.704,5.3797 -6.082,8.0545 -7.149,8.0546c-0.244,0 -0.351,-0.1066 -0.351,-0.3193c0,-0.1976 0.427,-1.0032 1.311,-2.4014l3.445,-5.5312l-3.354,0.1973l-1.554,1.4892l-0.96,0.8819c-0.366,0.3342 -0.656,0.5775 -0.839,0.7294c-0.207,0.1677 -0.363,0.3048 -0.468,0.4151c-0.232,0.1961 -0.492,0.4178 -0.782,0.6631c-1.463,1.2459 -2.683,1.8691 -3.6428,1.8691l-0.625,-0.0918c0.9598,-1.0029 1.6768,-1.8842 2.1498,-2.6592c0.472,-0.7749 0.701,-1.4891 0.701,-2.1728c0,-0.851 -0.428,-1.2763 -1.19,-1.2764c-0.762,0.0002 -1.5394,0.5011 -2.3015,1.5039c-0.762,1.003 -1.1425,2.0519 -1.1425,3.1309c0,0.547 0.259,1.109 0.8076,1.7168c-0.6859,0.8206 -1.3872,1.4134 -2.1035,1.8086c-0.7163,0.395 -1.3869,0.5927 -2.0117,0.5927c-0.5335,0 -0.8086,-0.2127 -0.8086,-0.623c0.0006,-0.4112 1.5716,-3.1159 4.7109,-8.1299l-3.918,0.1973c-3.658,5.5315 -6.2341,8.3123 -7.7431,8.3125c-0.2742,0 -0.4119,-0.1059 -0.4121,-0.3184c0,-0.2431 0.2135,-0.6996 0.625,-1.3681c0.2286,-0.3648 0.8388,-1.2615 1.8447,-2.7051c1.7521,-2.552 2.6975,-3.9197 2.8506,-4.1182l-3.7198,0.1973c-0.2894,0.3341 -0.5638,0.6227 -0.8076,0.8506c-0.2438,0.2279 -0.5338,0.4863 -0.8691,0.7295l-0.8379,0.7597c-0.2896,0.2736 -0.5645,0.5168 -0.8389,0.7295c-0.4113,0.3342 -0.6239,0.5474 -0.624,0.669c0,0.1519 0.0605,0.2285 0.2129,0.2285c0.1525,-0.0001 0.5185,-0.2894 1.0976,-0.8516c0.4267,-0.4102 0.8687,-0.8203 1.3106,-1.2305c-0.7772,1.1548 -1.2952,1.9452 -1.5391,2.3555c-0.7315,1.1852 -1.0975,2.1272 -1.0976,2.8262c0,0.5774 0.1826,1.0489 0.5332,1.3984c0.3658,0.3495 0.8235,0.5322 1.4179,0.5322c0.8993,0 1.8748,-0.4263 2.9112,-1.2773c1.0364,-0.8358 2.2254,-2.1272 3.5361,-3.8594c-0.2742,0.547 -0.4726,1.0336 -0.625,1.459c-0.1371,0.4254 -0.2129,0.8054 -0.2129,1.1397c0.0001,0.7749 0.2441,1.3976 0.7471,1.8535c0.503,0.4559 1.1586,0.6845 1.9512,0.6845c1.6917,-0.0001 3.3227,-0.8672 4.8925,-2.5996c0.2896,0.0912 0.64,0.1377 1.0362,0.1377c1.2046,0 2.5456,-0.6544 4.0086,-1.9765c0.278,-0.2514 0.544,-0.4904 0.799,-0.7168c0.118,-0.0793 0.275,-0.2069 0.472,-0.3858l0.391,-0.3701c0.39,-0.3377 0.745,-0.6395 1.067,-0.9033c-0.761,1.164 -1.329,2.0749 -1.692,2.7568c-0.457,0.8813 -0.686,1.5805 -0.686,2.1123c0,0.5775 0.168,1.0187 0.518,1.3682c0.336,0.3495 0.794,0.5166 1.388,0.5166c1.311,-0.0005 3.369,-1.8244 6.173,-5.4561c-0.457,0.8663 -0.824,1.5813 -1.068,2.1436c-0.258,0.5619 -0.38,1.0328 -0.38,1.4277c0,0.5927 0.183,1.0495 0.564,1.3838c0.381,0.3341 0.869,0.501 1.479,0.501c0.762,-0.0001 1.57,-0.2884 2.378,-0.8506c0.487,-0.3344 1.371,-1.0949 2.667,-2.2803c0.838,-0.775 1.677,-1.5646 2.515,-2.3701c1.07,-1.0191 1.952,-1.7441 2.635,-2.1767c5.419,4.6171 0.066,8.8766 -4.526,11.3574c-6.539,3.0394 -15.578,4.9238 -25.562,4.9238c-1.5088,0 -3.0024,-0.0455 -4.4502,-0.1367c11.6892,0.4546 9.644,-2.7181 9.6328,-2.7354c-1.4897,-1.4396 -5.4196,-0.1895 -5.4414,-0.1826c-10.2583,2.9027 -19.8007,0.3193 -25.2881,-1.8691c-6.5391,-3.0395 -10.5781,-7.2496 -10.5781,-11.8848c0,-0.699 0.1068,-1.3831 0.2744,-2.0517c-0.9603,5.4407 5.8838,4.4687 5.8838,4.4687c3.055,-0.6937 0.437,-2.5101 0.3965,-2.5381c-6.2342,-4.7718 -0.7018,-9.2095 4.0234,-11.7627c6.5392,-3.0394 15.5785,-4.9248 25.5625,-4.9248zM31.2334,9.8018c-0.6859,0 -1.5856,0.1826 -2.6982,0.5625c-1.1127,0.3799 -2.2106,0.9118 -3.3233,1.5957c-2.4844,1.55 -3.7343,3.4647 -3.7344,5.7441c0,0.7295 0.1985,1.5657 0.5948,2.4775l-1.0371,0.0909c-1.1582,-0.0001 -2.1339,-0.3034 -2.9112,-0.9112c-0.7774,-0.5927 -1.1582,-1.4142 -1.1582,-2.3564c0.0001,-0.9421 0.3503,-1.9299 1.0362,-3.0088c0.7011,-1.0638 1.5398,-1.915 2.5459,-2.5381c0.4572,-0.2887 1.0058,-0.547 1.6611,-0.7598c0.3962,-0.1367 0.5947,-0.2583 0.5947,-0.3798c-0.0152,-0.0152 -0.0463,-0.0454 -0.0615,-0.0606c-0.1064,-0.1061 -0.1823,-0.1522 -0.2432,-0.1523c-0.2439,0 -0.6862,0.0916 -1.2959,0.2588c-0.6249,0.1823 -1.2501,0.4254 -1.875,0.7597c-1.1583,0.6079 -2.0424,1.3529 -2.6826,2.2647c-0.6401,0.8965 -0.96,1.854 -0.96,2.8418c0.0001,1.2764 0.5183,2.3405 1.5547,3.1611c1.0365,0.8357 2.3474,1.2461 3.9629,1.2461h1.1582c1.006,1.0789 2.256,1.6103 3.7344,1.6103c1.1127,0 2.2416,-0.2883 3.3848,-0.8505c-1.3414,2.2947 -2.4702,3.8904 -3.3848,4.7871c-1.0822,1.0788 -2.2561,1.6113 -3.5059,1.6113c-0.96,0 -1.753,-0.1522 -2.3779,-0.4561c-0.6246,-0.3038 -0.9442,-0.6232 -0.9443,-0.9726c0,-0.4103 0.3502,-0.6996 1.0361,-0.8516c1.1736,-0.2431 1.7529,-0.7445 1.7529,-1.5195c0,-0.4102 -0.1674,-0.7446 -0.4873,-1.0029c-0.32,-0.2584 -0.7474,-0.3955 -1.2656,-0.3955c-0.6706,0 -1.2499,0.2282 -1.7529,0.6689c-0.5029,0.4406 -0.747,1.0029 -0.7471,1.6865c0,1.0335 0.5037,1.8394 1.5098,2.4473c1.006,0.6077 2.4236,0.9121 4.2373,0.9121c1.4174,0 2.6983,-0.1977 3.8262,-0.5928c1.1277,-0.4103 2.0114,-0.9427 2.621,-1.6113c0.625,-0.6687 1.1133,-1.4591 1.4639,-2.4014c0.2591,-0.8357 0.5333,-1.6871 0.8076,-2.5381c0.1829,-0.6077 0.4271,-1.1393 0.7471,-1.6103c0.2438,-0.3646 0.4724,-0.638 0.6553,-0.8203c-0.0305,0 -0.0303,-0.0161 -0.0303,-0.0313c-0.0304,-0.0302 -0.0916,-0.0302 -0.1523,-0.0302c-0.1067,0 -0.3664,0.1367 -0.793,0.4101c-0.9448,0.623 -1.4635,0.9577 -1.5703,1.0186c-0.8688,0.5774 -1.7221,0.9881 -2.5147,1.2617c-0.7925,0.2735 -1.6158,0.4101 -2.4541,0.4101c-1.4784,0 -2.3626,-0.4255 -2.6523,-1.2763c2.012,-0.304 4.0237,-1.171 6.0205,-2.6299c1.4328,-1.0486 2.531,-2.1269 3.3389,-3.2363c0.7316,-1.0182 1.0966,-1.9003 1.0966,-2.6602l-0.0449,0.0156c0,-0.6534 -0.2441,-1.1707 -0.7471,-1.581c-0.5028,-0.395 -1.1432,-0.6073 -1.9355,-0.6074zM50.484,21.1836c0.408,0 0.621,0.1345 0.624,0.4033c-0.006,0.6546 -0.782,1.7768 -2.3453,3.3809c-0.3353,-0.1976 -0.5039,-0.5623 -0.5039,-1.1094c0,-0.6382 0.2596,-1.2458 0.793,-1.8232c0.5333,-0.5622 1.0212,-0.8515 1.4322,-0.8516zM31.8574,10.2422c0.4725,0 0.8696,0.1527 1.1592,0.4414c0.2894,0.2887 0.4414,0.6687 0.4414,1.1396c-0.0001,0.5167 -0.259,1.2005 -0.8076,2.0362c-0.6096,0.9117 -1.4479,1.8387 -2.5147,2.7656c-1.0669,0.9422 -2.165,1.6872 -3.2929,2.2646c-1.1279,0.5775 -2.2409,0.9578 -3.3535,1.1553c0.2591,-1.7173 1.2962,-3.7233 3.1406,-6.0029c2.0575,-2.5377 3.81,-3.7995 5.2275,-3.7998z" fill="#0B579F"/>
</g>
</g>
<g id="Group_2">
<path id="Vector" d="M97,12.2175h1.648l3.254,11.4882l4.586,-11.4882h0.338l4.522,11.4882l3.317,-11.4882h1.627l-4.585,15.9441h-0.296l-4.733,-12.0795l-4.839,12.0795h-0.296l-4.522,-15.9441z" fill="#0B579F"/>
<path id="Vector_2" d="M119.503,11.4998c0.338,0 0.634,0.1267 0.887,0.359c0.254,0.2534 0.36,0.549 0.36,0.8869c0,0.3379 -0.127,0.6336 -0.36,0.887c-0.253,0.2534 -0.549,0.359 -0.887,0.359c-0.338,0 -0.634,-0.1267 -0.866,-0.359c-0.254,-0.2534 -0.36,-0.5491 -0.36,-0.887c0,-0.3379 0.127,-0.6335 0.36,-0.8869c0.253,-0.2535 0.528,-0.359 0.866,-0.359zM118.763,16.3569h1.522v11.805h-1.522z" fill="#0B579F"/>
<path id="Vector_3" d="M124.766,11.9851h1.522v4.3926h2.408v1.3093h-2.408v10.4956h-1.522v-10.4956h-2.071v-1.3093h2.071z" fill="#0B579F"/>
<path id="Vector_4" d="M130.957,11.7942h1.521v6.6733c0.613,-0.8025 1.289,-1.4149 2.029,-1.8162c0.74,-0.4012 1.543,-0.5913 2.388,-0.5913c0.845,0 1.669,0.2323 2.345,0.6758c0.676,0.4435 1.184,1.0559 1.522,1.8162c0.317,0.7602 0.486,1.9428 0.486,3.5478v6.082h-1.522v-5.6385c0,-1.3516 -0.063,-2.2597 -0.169,-2.7243c-0.19,-0.7813 -0.528,-1.3726 -1.014,-1.7528c-0.486,-0.4012 -1.141,-0.5913 -1.944,-0.5913c-0.909,0 -1.733,0.2957 -2.472,0.9081c-0.719,0.6124 -1.205,1.3516 -1.437,2.2596c-0.148,0.5702 -0.212,1.6472 -0.212,3.21v4.3292h-1.521v-16.3454z" fill="#0B579F"/>
<path id="Vector_5" d="M144.332,16.3572h1.521v5.5118c0,1.3515 0.064,2.2807 0.212,2.7664c0.211,0.7181 0.634,1.2882 1.246,1.7106c0.613,0.4224 1.332,0.6335 2.198,0.6335c0.866,0 1.564,-0.2111 2.155,-0.6124c0.592,-0.4012 0.993,-0.9503 1.226,-1.605c0.148,-0.4645 0.232,-1.4149 0.232,-2.8931v-5.5118h1.564v5.7863c0,1.6261 -0.19,2.8509 -0.571,3.6745c-0.38,0.8237 -0.95,1.4572 -1.711,1.9429c-0.761,0.4646 -1.712,0.6969 -2.874,0.6969c-1.162,0 -2.113,-0.2323 -2.874,-0.6969c-0.76,-0.4646 -1.352,-1.1192 -1.732,-1.9429c-0.381,-0.8236 -0.571,-2.0906 -0.571,-3.759v-5.6807z" fill="#0B579F"/>
<path id="Vector_6" d="M163.962,17.6446l-0.972,1.0137c-0.824,-0.7814 -1.606,-1.1826 -2.387,-1.1826c-0.487,0 -0.909,0.1689 -1.268,0.4857c-0.36,0.3168 -0.529,0.6969 -0.529,1.1404c0,0.3801 0.148,0.7391 0.444,1.0981c0.296,0.359 0.909,0.7603 1.839,1.246c1.119,0.5913 1.901,1.1404 2.303,1.6894c0.401,0.5491 0.591,1.1615 0.591,1.8584c0,0.9714 -0.338,1.795 -1.014,2.4708c-0.676,0.6758 -1.542,1.0137 -2.557,1.0137c-0.676,0 -1.331,-0.1478 -1.944,-0.4435c-0.612,-0.2956 -1.141,-0.6969 -1.542,-1.2248l0.951,-1.0771c0.781,0.8659 1.606,1.3094 2.472,1.3094c0.613,0 1.12,-0.1901 1.564,-0.5913c0.422,-0.3802 0.634,-0.8448 0.634,-1.3727c0,-0.4435 -0.148,-0.8236 -0.423,-1.1615c-0.275,-0.3379 -0.909,-0.7603 -1.923,-1.2671c-1.057,-0.5491 -1.796,-1.0981 -2.176,-1.6261c-0.381,-0.5279 -0.571,-1.1403 -0.571,-1.8372c0,-0.887 0.317,-1.6472 0.909,-2.2385c0.612,-0.5914 1.394,-0.887 2.324,-0.887c1.078,0 2.176,0.5279 3.275,1.5838z" fill="#0B579F"/>
<path id="Vector_7" d="M173.027,12.2175h1.585v6.6944h8.135v-6.6944h1.585v15.9441h-1.585v-7.708h-8.135v7.708h-1.585z" fill="#0B579F"/>
<path id="Vector_8" d="M197.939,24.2546l1.289,0.6758c-0.422,0.8236 -0.908,1.4993 -1.458,2.0062c-0.549,0.5068 -1.162,0.8869 -1.859,1.1615c-0.676,0.2534 -1.458,0.4012 -2.324,0.4012c-1.923,0 -3.424,-0.6335 -4.522,-1.9006c-1.078,-1.2671 -1.627,-2.682 -1.627,-4.287c0,-1.4994 0.464,-2.8298 1.373,-4.0124c1.162,-1.4994 2.726,-2.2385 4.67,-2.2385c1.944,0 3.613,0.7602 4.818,2.2807c0.845,1.0771 1.289,2.4286 1.31,4.0336h-10.629c0.021,1.3727 0.465,2.4919 1.31,3.3789c0.845,0.8658 1.902,1.3093 3.149,1.3093c0.591,0 1.183,-0.1056 1.753,-0.3168c0.571,-0.2112 1.057,-0.4857 1.458,-0.8236c0.402,-0.3379 0.825,-0.9081 1.289,-1.6683zM197.939,21.0658c-0.211,-0.8025 -0.507,-1.4572 -0.887,-1.9429c-0.38,-0.4857 -0.909,-0.8658 -1.543,-1.1615c-0.634,-0.2956 -1.31,-0.4435 -2.007,-0.4435c-1.162,0 -2.155,0.3802 -2.979,1.1193c-0.613,0.5491 -1.078,1.3515 -1.374,2.4497h8.812z" fill="#0B579F"/>
<path id="Vector_9" d="M214.189,16.3573v11.805h-1.501v-2.0274c-0.634,0.7814 -1.352,1.3516 -2.134,1.7528c-0.803,0.3802 -1.648,0.5913 -2.599,0.5913c-1.669,0 -3.106,-0.6124 -4.289,-1.8161c-1.184,-1.2037 -1.775,-2.682 -1.775,-4.4137c0,-1.7317 0.591,-3.1466 1.796,-4.3503c1.183,-1.2037 2.62,-1.8161 4.31,-1.8161c0.972,0 1.839,0.2111 2.642,0.6124c0.782,0.4223 1.479,1.0348 2.07,1.8584v-2.1752h1.501zM208.124,17.5188c-0.845,0 -1.627,0.2112 -2.345,0.6124c-0.719,0.4224 -1.289,0.9926 -1.712,1.7528c-0.423,0.7391 -0.634,1.5416 -0.634,2.3863c0,0.8448 0.211,1.6261 0.634,2.3864c0.423,0.7602 0.993,1.3515 1.712,1.7739c0.718,0.4224 1.5,0.6335 2.324,0.6335c0.824,0 1.627,-0.2111 2.367,-0.6335c0.739,-0.4224 1.31,-0.9925 1.711,-1.7106c0.402,-0.718 0.613,-1.5205 0.613,-2.4074c0,-1.3727 -0.444,-2.5131 -1.352,-3.4211c-0.909,-0.9081 -2.008,-1.3727 -3.318,-1.3727z" fill="#0B579F"/>
<path id="Vector_10" d="M217.383,11.7942h1.521v16.3453h-1.521z" fill="#0B579F"/>
<path id="Vector_11" d="M223.383,11.9851h1.522v4.3926h2.409v1.3093h-2.409v10.4956h-1.522v-10.4956h-2.071v-1.3093h2.071z" fill="#0B579F"/>
<path id="Vector_12" d="M229.594,11.7942h1.521v6.6733c0.613,-0.8025 1.289,-1.4149 2.029,-1.8162c0.739,-0.4012 1.542,-0.5913 2.387,-0.5913c0.846,0 1.67,0.2323 2.346,0.6758c0.676,0.4435 1.183,1.0559 1.521,1.8162c0.317,0.7602 0.486,1.9428 0.486,3.5478v6.082h-1.521v-5.6385c0,-1.3516 -0.063,-2.2597 -0.169,-2.7243c-0.19,-0.7813 -0.528,-1.3726 -1.014,-1.7528c-0.486,-0.4012 -1.141,-0.5913 -1.944,-0.5913c-0.909,0 -1.733,0.2957 -2.473,0.9081c-0.718,0.6124 -1.204,1.3516 -1.437,2.2596c-0.147,0.5702 -0.211,1.6472 -0.211,3.21v4.3292h-1.521v-16.3454z" fill="#0B579F"/>
<path id="Vector_13" d="M254.615,18.807l-1.205,0.7391c-1.035,-1.3727 -2.472,-2.0695 -4.268,-2.0695c-1.437,0 -2.641,0.4646 -3.571,1.3937c-0.951,0.9292 -1.437,2.0485 -1.437,3.3789c0,0.8659 0.211,1.6684 0.655,2.4286c0.444,0.7602 1.035,1.3516 1.796,1.7739c0.761,0.4224 1.627,0.6336 2.557,0.6336c1.733,0 3.148,-0.6969 4.247,-2.0696l1.205,0.8025c-0.571,0.8447 -1.332,1.4993 -2.282,1.9851c-0.951,0.4646 -2.029,0.6969 -3.255,0.6969c-1.859,0 -3.402,-0.5914 -4.648,-1.774c-1.226,-1.1826 -1.839,-2.6397 -1.839,-4.3292c0,-1.1403 0.296,-2.1962 0.867,-3.1888c0.57,-0.9714 1.373,-1.7528 2.366,-2.3018c1.015,-0.5491 2.134,-0.8236 3.381,-0.8236c0.782,0 1.543,0.1267 2.261,0.359c0.719,0.2323 1.353,0.549 1.839,0.9292c0.507,0.3801 0.929,0.8658 1.288,1.4571z" fill="#0B579F"/>
<path id="Vector_14" d="M269.298,16.3573v11.805h-1.5v-2.0274c-0.634,0.7814 -1.353,1.3516 -2.134,1.7528c-0.782,0.3802 -1.649,0.5913 -2.6,0.5913c-1.669,0 -3.106,-0.6124 -4.289,-1.8161c-1.183,-1.2037 -1.775,-2.682 -1.775,-4.4137c0,-1.7317 0.592,-3.1466 1.796,-4.3503c1.183,-1.2037 2.641,-1.8161 4.311,-1.8161c0.972,0 1.838,0.2111 2.641,0.6124c0.782,0.4223 1.479,1.0348 2.071,1.8584v-2.1752h1.5zM263.212,17.5188c-0.845,0 -1.627,0.2112 -2.345,0.6124c-0.719,0.4224 -1.289,0.9926 -1.712,1.7528c-0.422,0.7391 -0.634,1.5416 -0.634,2.3863c0,0.8448 0.212,1.6261 0.634,2.3864c0.423,0.7602 0.993,1.3515 1.712,1.7739c0.718,0.4224 1.479,0.6335 2.303,0.6335c0.824,0 1.627,-0.2111 2.367,-0.6335c0.739,-0.4224 1.31,-0.9925 1.711,-1.7106c0.402,-0.718 0.592,-1.5205 0.592,-2.4074c0,-1.3727 -0.444,-2.5131 -1.352,-3.4211c-0.909,-0.9081 -2.008,-1.3727 -3.318,-1.3727z" fill="#0B579F"/>
<path id="Vector_15" d="M272.129,16.3564h1.564v1.7317c0.464,-0.6758 0.95,-1.1826 1.458,-1.5205c0.507,-0.3379 1.056,-0.5068 1.606,-0.5068c0.422,0 0.866,0.1267 1.352,0.4012l-0.782,1.2882c-0.317,-0.1478 -0.592,-0.2111 -0.803,-0.2111c-0.507,0 -0.993,0.2111 -1.458,0.6335c-0.465,0.4224 -0.824,1.0559 -1.078,1.9429c-0.19,0.6757 -0.274,2.0273 -0.274,4.0757v3.9913h-1.564v-11.8049z" fill="#0B579F"/>
<path id="Vector_16" d="M289.332,24.2546l1.289,0.6758c-0.423,0.8236 -0.909,1.4993 -1.458,2.0062c-0.55,0.5068 -1.163,0.8869 -1.86,1.1615c-0.697,0.2534 -1.458,0.4012 -2.345,0.4012c-1.923,0 -3.424,-0.6335 -4.522,-1.9006c-1.078,-1.2671 -1.627,-2.682 -1.627,-4.287c0,-1.4994 0.464,-2.8298 1.373,-4.0124c1.162,-1.4994 2.726,-2.2385 4.691,-2.2385c1.965,0 3.613,0.7602 4.818,2.2807c0.845,1.0771 1.289,2.4286 1.31,4.0336h-10.629c0.021,1.3727 0.465,2.4919 1.31,3.3789c0.846,0.8658 1.902,1.3093 3.149,1.3093c0.591,0 1.183,-0.1056 1.754,-0.3168c0.57,-0.2112 1.056,-0.4857 1.458,-0.8236c0.401,-0.3379 0.824,-0.9081 1.289,-1.6683zM289.332,21.0658c-0.191,-0.8025 -0.508,-1.4572 -0.888,-1.9429c-0.38,-0.4857 -0.908,-0.8658 -1.542,-1.1615c-0.634,-0.2956 -1.31,-0.4435 -2.008,-0.4435c-1.162,0 -2.155,0.3802 -2.979,1.1193c-0.613,0.5491 -1.078,1.3515 -1.374,2.4497h8.791z" fill="#0B579F"/>
</g>
</g></svg>