<svg width="48" height="12" viewBox="0 0 48 12" fill="none" xmlns="http://www.w3.org/2000/svg">
<path d="M47.7735 5.77344L42 -6.53267e-05L36.2265 5.77344L42 11.5469L47.7735 5.77344ZM2.1 6.77344C2.65228 6.77344 3.1 6.32572 3.1 5.77344C3.1 5.22115 2.65228 4.77344 2.1 4.77344V5.77344V6.77344ZM6.3 4.77344C5.74771 4.77344 5.3 5.22115 5.3 5.77344C5.3 6.32572 5.74771 6.77344 6.3 6.77344V5.77344V4.77344ZM10.5 6.77344C11.0523 6.77344 11.5 6.32572 11.5 5.77344C11.5 5.22115 11.0523 4.77344 10.5 4.77344V5.77344V6.77344ZM14.7 4.77344C14.1477 4.77344 13.7 5.22115 13.7 5.77344C13.7 6.32572 14.1477 6.77344 14.7 6.77344V5.77344V4.77344ZM18.9 6.77344C19.4523 6.77344 19.9 6.32572 19.9 5.77344C19.9 5.22115 19.4523 4.77344 18.9 4.77344V5.77344V6.77344ZM23.1 4.77344C22.5477 4.77344 22.1 5.22115 22.1 5.77344C22.1 6.32572 22.5477 6.77344 23.1 6.77344V5.77344V4.77344ZM27.3 6.77344C27.8523 6.77344 28.3 6.32572 28.3 5.77344C28.3 5.22115 27.8523 4.77344 27.3 4.77344V5.77344V6.77344ZM31.5 4.77344C30.9477 4.77344 30.5 5.22115 30.5 5.77344C30.5 6.32572 30.9477 6.77344 31.5 6.77344V5.77344V4.77344ZM35.7 6.77344C36.2523 6.77344 36.7 6.32572 36.7 5.77344C36.7 5.22115 36.2523 4.77344 35.7 4.77344V5.77344V6.77344ZM39.9 4.77344C39.3477 4.77344 38.9 5.22115 38.9 5.77344C38.9 6.32572 39.3477 6.77344 39.9 6.77344V5.77344V4.77344ZM0 5.77344V6.77344H2.1V5.77344V4.77344H0V5.77344ZM6.3 5.77344V6.77344H10.5V5.77344V4.77344H6.3V5.77344ZM14.7 5.77344V6.77344H18.9V5.77344V4.77344H14.7V5.77344ZM23.1 5.77344V6.77344H27.3V5.77344V4.77344H23.1V5.77344ZM31.5 5.77344V6.77344H35.7V5.77344V4.77344H31.5V5.77344ZM39.9 5.77344V6.77344H42V5.77344V4.77344H39.9V5.77344ZM47.7735 5.77344L42 -6.53267e-05L36.2265 5.77344L42 11.5469L47.7735 5.77344ZM2.1 6.77344C2.65228 6.77344 3.1 6.32572 3.1 5.77344C3.1 5.22115 2.65228 4.77344 2.1 4.77344V5.77344V6.77344ZM6.3 4.77344C5.74771 4.77344 5.3 5.22115 5.3 5.77344C5.3 6.32572 5.74771 6.77344 6.3 6.77344V5.77344V4.77344ZM10.5 6.77344C11.0523 6.77344 11.5 6.32572 11.5 5.77344C11.5 5.22115 11.0523 4.77344 10.5 4.77344V5.77344V6.77344ZM14.7 4.77344C14.1477 4.77344 13.7 5.22115 13.7 5.77344C13.7 6.32572 14.1477 6.77344 14.7 6.77344V5.77344V4.77344ZM18.9 6.77344C19.4523 6.77344 19.9 6.32572 19.9 5.77344C19.9 5.22115 19.4523 4.77344 18.9 4.77344V5.77344V6.77344ZM23.1 4.77344C22.5477 4.77344 22.1 5.22115 22.1 5.77344C22.1 6.32572 22.5477 6.77344 23.1 6.77344V5.77344V4.77344ZM27.3 6.77344C27.8523 6.77344 28.3 6.32572 28.3 5.77344C28.3 5.22115 27.8523 4.77344 27.3 4.77344V5.77344V6.77344ZM31.5 4.77344C30.9477 4.77344 30.5 5.22115 30.5 5.77344C30.5 6.32572 30.9477 6.77344 31.5 6.77344V5.77344V4.77344ZM35.7 6.77344C36.2523 6.77344 36.7 6.32572 36.7 5.77344C36.7 5.22115 36.2523 4.77344 35.7 4.77344V5.77344V6.77344ZM39.9 4.77344C39.3477 4.77344 38.9 5.22115 38.9 5.77344C38.9 6.32572 39.3477 6.77344 39.9 6.77344V5.77344V4.77344ZM0 5.77344V6.77344H2.1V5.77344V4.77344H0V5.77344ZM6.3 5.77344V6.77344H10.5V5.77344V4.77344H6.3V5.77344ZM14.7 5.77344V6.77344H18.9V5.77344V4.77344H14.7V5.77344ZM23.1 5.77344V6.77344H27.3V5.77344V4.77344H23.1V5.77344ZM31.5 5.77344V6.77344H35.7V5.77344V4.77344H31.5V5.77344ZM39.9 5.77344V6.77344H42V5.77344V4.77344H39.9V5.77344Z" fill="url(#paint0_linear_585_307)"/>
<defs>
<linearGradient id="paint0_linear_585_307" x1="0" y1="6.27344" x2="42" y2="6.27344" gradientUnits="userSpaceOnUse">
<stop stop-color="#D2E0EE"/>
<stop offset="1" stop-color="#0B579F"/>
</linearGradient>
</defs>
</svg>
