<svg id="Layer_1" enable-background="new 0 0 512 512" viewBox="0 0 512 512" xmlns="http://www.w3.org/2000/svg" fill="currentColor" stroke="currentColor" stroke-width="8" stroke-linejoin="round" paint-order="stroke"><path d="m449.801 66.733-192.77-40.626c-.681-.143-1.382-.143-2.063 0l-192.769 40.626c-2.313.488-3.969 2.529-3.969 4.893v188.09c0 52.116 21.106 104.639 59.429 147.894 37.12 41.897 87.261 70.447 137.566 78.33.257.04.516.06.775.06s.518-.02.774-.061c50.305-7.882 100.446-36.433 137.566-78.33 38.323-43.255 59.429-95.778 59.429-147.894v-188.089c.001-2.364-1.655-4.405-3.968-4.893zm-6.031 192.983c0 101.002-85.904 199.833-187.77 216.221-101.866-16.388-187.77-115.218-187.77-216.221v-184.034l187.77-39.572 187.77 39.572zm-188.801-188.643-148.77 31.353c-2.313.488-3.969 2.529-3.969 4.893v152.397c0 40.104 16.337 81.3 46.002 115.997 28.758 33.638 67.673 57.506 106.768 65.487.33.067.665.101 1 .101s.67-.034 1-.101c39.095-7.981 78.01-31.85 106.768-65.487 29.665-34.697 46.002-75.893 46.002-115.997v-152.397c0-2.364-1.656-4.405-3.969-4.893l-148.77-31.353c-.68-.142-1.382-.142-2.062 0zm144.801 40.302v148.341c0 76.715-65.736 154.997-143.77 171.479-78.034-16.482-143.77-94.764-143.77-171.479v-148.341l143.77-30.299zm-171.326 172.798 106.687-106.688c1.953-1.952 5.118-1.952 7.071 0 1.953 1.953 1.953 5.119 0 7.071l-110.222 110.224c-.977.976-2.256 1.464-3.536 1.464s-2.559-.488-3.536-1.464l-55.111-55.111c-1.953-1.953-1.953-5.119 0-7.071s5.118-1.952 7.071 0z"/></svg>